<svg width="49" height="25" viewBox="0 0 49 25" fill="none" xmlns="http://www.w3.org/2000/svg">
<path d="M10.7306 4.71596C11.0371 2.92557 10.93 1.95305 10.0717 0.625497C9.21385 -0.702053 6.68526 0.177898 7.65064 2.40064C8.31495 3.93021 6.93552 6.16494 5.26042 7.17013C3.09993 8.46664 1.51131 9.4506 0.342145 12.4487C-0.669185 15.0418 0.75565 17.851 2.08805 18.9335C3.41451 20.0116 4.95881 20.1189 6.08094 19.9441C8.12252 19.6272 7.39443 17.894 6.47877 18.1167C5.33555 18.3944 3.66208 17.5439 3.20749 16.3072C2.64048 14.7635 2.89777 12.8582 4.12693 11.4299C5.72041 9.57747 10.1819 7.92375 10.7306 4.71542V4.71596Z" fill="#6939F9"/>
<path d="M36.7726 11.1058C36.7726 7.75643 33.6532 5.04089 29.8046 5.04089C25.956 5.04089 22.8296 7.69871 22.8296 11.0481C22.8296 11.0513 22.8296 11.0552 22.8296 11.0584C22.8301 11.2871 22.5361 11.3737 22.4145 11.1804C20.7448 8.5351 16.9859 6.42235 12.7071 7.77059C6.95426 9.58277 5.54078 14.3844 5.44456 14.7628C4.58675 18.128 5.68402 22.9307 8.70287 22.635C15.3271 21.9865 17.273 23.1441 22.881 24.2092C27.3711 25.0619 31.7586 21.3254 32.3808 20.1808C33.6218 17.8966 34.6483 16.5227 35.2256 15.5927C36.1234 14.1453 36.7731 12.5493 36.7731 11.1058H36.7726Z" fill="#6939F9"/>
<path d="M36.4436 11.1139L32.8675 7.46174C32.4815 7.0675 32.3415 6.48867 32.5123 5.96212C32.8956 4.78214 33.635 3.28578 33.9237 2.8066C34.3015 2.17877 34.8734 1.76711 35.4047 2.91986C35.8971 3.98822 36.7279 6.81757 36.7728 10.9679C36.7744 11.1384 36.5625 11.2353 36.4436 11.1139Z" fill="#6939F9"/>
<path d="M23.1598 11.1139L26.7359 7.46174C27.1219 7.0675 27.2619 6.48867 27.0911 5.96212C26.7078 4.78214 25.9684 3.28578 25.6797 2.8066C25.3019 2.17877 24.73 1.76711 24.1987 2.91986C23.7063 3.98822 22.8755 6.81757 22.8306 10.9679C22.829 11.1384 23.0409 11.2353 23.1598 11.1139Z" fill="#6939F9"/>
<path d="M31.042 9.61608C31.0582 10.0452 32.0604 10.22 32.5771 10.1998C33.0939 10.1797 33.4993 9.81592 33.4831 9.38738C33.4668 8.95829 33.035 8.62722 32.5182 8.64682C31.9117 8.67024 31.0258 9.18699 31.042 9.61608Z" fill="white"/>
<path d="M28.5673 9.61608C28.5511 10.0452 27.549 10.22 27.0322 10.1998C26.5155 10.1797 26.1101 9.81592 26.1263 9.38738C26.1425 8.95829 26.5744 8.62722 27.0911 8.64682C27.6976 8.67024 28.5835 9.18699 28.5673 9.61608Z" fill="white"/>
<path d="M24.1064 22.2349C26.8031 24.3961 28.3917 24.5394 30.0004 24.7871C34.2803 25.4454 38.4013 24.4811 39.3672 23.2848C40.3331 22.0885 39.2856 21.0212 37.4672 21.2265C35.8656 21.4078 31.3998 21.5559 29.9901 21.0157C29.0106 20.64 29.5393 20.1467 31.369 20.1603C34.403 20.1832 37.4824 20.9232 38.8153 20.6912C40.1483 20.4592 40.4093 19.1213 39.3272 18.3252C38.0964 17.4197 34.2651 16.4308 30.1279 16.4308C27.4064 16.4308 21.1432 19.8597 24.1064 22.2344V22.2349Z" fill="#6939F9"/>
<path d="M6.64572 20.6098C6.26789 20.7198 6.10897 21.1718 6.33491 21.4963C6.94031 22.3675 8.25271 23.8846 10.2251 24.2102C13.0288 24.673 16.3234 24.1639 17.4266 24.0251C18.5298 23.8862 19.3725 22.6823 17.4877 22.312C15.6028 21.9417 9.99538 20.3669 8.43217 20.3669C7.67543 20.3669 7.06949 20.4862 6.64572 20.6098Z" fill="#6939F9"/>
<path d="M43.9999 17.9998C46.7613 17.9998 48.9998 15.7613 48.9998 12.9999C48.9998 10.2385 46.7613 8 43.9999 8C41.2385 8 39 10.2385 39 12.9999C39 15.7613 41.2385 17.9998 43.9999 17.9998Z" fill="url(#paint0_radial_1_175)"/>
<path d="M40.6046 14.8774L40.6235 14.7957C40.652 14.6717 40.7088 14.556 40.7893 14.4575C40.9235 14.2935 41.1155 14.1872 41.3258 14.1607L41.4603 14.1437C41.7929 14.1018 42.1276 14.2049 42.3788 14.4269L42.6558 14.6716C43.0905 15.0091 43.5869 15.2583 44.1172 15.4054L44.6585 15.5556L45.1475 15.6426C45.376 15.6832 45.4953 15.9378 45.3804 16.1394C45.3508 16.1912 45.308 16.2343 45.2563 16.2641L45.0007 16.4113L44.4359 16.6587L44.3322 16.6933C43.9659 16.8154 43.5798 16.8668 43.1944 16.8447L42.7704 16.8093C42.4293 16.7809 42.0954 16.6957 41.7824 16.5572L41.4838 16.425C41.2791 16.3345 41.0963 16.2011 40.9476 16.0339L40.8892 15.9683C40.7436 15.8045 40.6439 15.6051 40.6004 15.3903L40.5981 15.3788C40.5645 15.2131 40.5667 15.0422 40.6046 14.8774Z" fill="white"/>
<path d="M40.6046 14.8774L40.6235 14.7957C40.652 14.6717 40.7088 14.556 40.7893 14.4575C40.9235 14.2935 41.1155 14.1872 41.3258 14.1607L41.4603 14.1437C41.7929 14.1018 42.1276 14.2049 42.3788 14.4269L42.6558 14.6716C43.0905 15.0091 43.5869 15.2583 44.1172 15.4054L44.6585 15.5556L45.1475 15.6426C45.376 15.6832 45.4953 15.9378 45.3804 16.1394C45.3508 16.1912 45.308 16.2343 45.2563 16.2641L45.0007 16.4113L44.4359 16.6587L44.3322 16.6933C43.9659 16.8154 43.5798 16.8668 43.1944 16.8447L42.7704 16.8093C42.4293 16.7809 42.0954 16.6957 41.7824 16.5572L41.4838 16.425C41.2791 16.3345 41.0963 16.2011 40.9476 16.0339L40.8892 15.9683C40.7436 15.8045 40.6439 15.6051 40.6004 15.3903L40.5981 15.3788C40.5645 15.2131 40.5667 15.0422 40.6046 14.8774Z" fill="url(#paint1_linear_1_175)"/>
<path d="M46.4998 14.7686C45.9586 15.5876 44.7252 16.7838 43.0069 16.7562C42.5834 16.7496 42.2324 16.7101 41.8508 16.5811C41.6978 16.5295 41.6283 16.6813 41.7632 16.7712C42.4652 17.2392 43.1587 17.4582 44.0148 17.4582C45.8776 17.4582 47.4717 16.3081 48.1262 14.6786C48.335 14.1585 48.2378 13.7217 47.7867 13.7007C47.3355 13.6797 46.9041 14.1567 46.5004 14.768L46.4998 14.7686Z" fill="#FE20C2"/>
<path d="M47.0925 14.8506C47.0595 14.5849 46.561 14.6017 46.2034 14.9586C45.8416 15.3204 46.2082 15.6204 46.4776 15.5652C46.843 15.4902 47.1255 15.1164 47.0925 14.8506Z" fill="url(#paint2_linear_1_175)"/>
<path d="M45.8854 8.70251C45.3857 8.43493 44.6447 8.37314 44.0352 8.42773C42.0026 8.60891 40.4121 10.1922 40.2178 12.2236C40.1752 12.6669 40.2028 13.0977 40.2886 13.5068C40.3264 13.6856 40.5771 13.7 40.6371 13.5278C41.2113 11.8762 42.365 10.7933 44.7443 10.6469C46.411 10.5443 47.3319 9.47763 45.8848 8.70251H45.8854Z" fill="#FE20C2"/>
<path d="M45.4835 9.18684C45.6782 9.17301 45.7122 8.98084 45.4973 8.8855C44.9361 8.6375 43.958 8.64886 43.0381 8.8855C41.2933 9.33406 40.4293 10.3394 40.3962 11.2869C40.3631 12.2339 41.443 12.7324 42.4567 12.4666C43.4704 12.2008 44.2668 11.1906 45.3314 11.1787C46.0709 11.1703 46.7605 11.403 47.2422 11.569C47.6043 11.694 47.8029 11.5008 47.6409 11.1535C47.5826 11.029 47.3079 10.7119 47.1172 10.5721C46.2591 9.9417 45.2479 9.80782 44.4668 9.82412C44.0178 9.83351 43.6784 9.83203 43.4714 9.82906C43.3933 9.82807 43.3657 9.72433 43.4334 9.68531C43.7115 9.52426 44.3216 9.26984 45.4835 9.18635V9.18684Z" fill="white"/>
<path d="M45.4835 9.18684C45.6782 9.17301 45.7122 8.98084 45.4973 8.8855C44.9361 8.6375 43.958 8.64886 43.0381 8.8855C41.2933 9.33406 40.4293 10.3394 40.3962 11.2869C40.3631 12.2339 41.443 12.7324 42.4567 12.4666C43.4704 12.2008 44.2668 11.1906 45.3314 11.1787C46.0709 11.1703 46.7605 11.403 47.2422 11.569C47.6043 11.694 47.8029 11.5008 47.6409 11.1535C47.5826 11.029 47.3079 10.7119 47.1172 10.5721C46.2591 9.9417 45.2479 9.80782 44.4668 9.82412C44.0178 9.83351 43.6784 9.83203 43.4714 9.82906C43.3933 9.82807 43.3657 9.72433 43.4334 9.68531C43.7115 9.52426 44.3216 9.26984 45.4835 9.18635V9.18684Z" fill="url(#paint3_linear_1_175)" style="mix-blend-mode:multiply"/>
<path d="M45.4835 9.18684C45.6782 9.17301 45.7122 8.98084 45.4973 8.8855C44.9361 8.6375 43.958 8.64886 43.0381 8.8855C41.2933 9.33406 40.4293 10.3394 40.3962 11.2869C40.3631 12.2339 41.443 12.7324 42.4567 12.4666C43.4704 12.2008 44.2668 11.1906 45.3314 11.1787C46.0709 11.1703 46.7605 11.403 47.2422 11.569C47.6043 11.694 47.8029 11.5008 47.6409 11.1535C47.5826 11.029 47.3079 10.7119 47.1172 10.5721C46.2591 9.9417 45.2479 9.80782 44.4668 9.82412C44.0178 9.83351 43.6784 9.83203 43.4714 9.82906C43.3933 9.82807 43.3657 9.72433 43.4334 9.68531C43.7115 9.52426 44.3216 9.26984 45.4835 9.18635V9.18684Z" fill="url(#paint4_linear_1_175)" style="mix-blend-mode:multiply"/>
<g style="mix-blend-mode:hue">
<circle cx="44.0001" cy="12.9999" r="4.99992" fill="#FF336D"/>
</g>
<defs>
<radialGradient id="paint0_radial_1_175" cx="0" cy="0" r="1" gradientUnits="userSpaceOnUse" gradientTransform="translate(43.9999 12.9999) scale(4.99992)">
<stop offset="0.21" stop-color="#C10086"/>
<stop offset="0.39" stop-color="#C70085"/>
<stop offset="0.64" stop-color="#D90082"/>
<stop offset="0.93" stop-color="#F7007E"/>
<stop offset="1" stop-color="#FF007E"/>
</radialGradient>
<linearGradient id="paint1_linear_1_175" x1="41.2224" y1="15.1627" x2="45.6667" y2="16.2738" gradientUnits="userSpaceOnUse">
<stop stop-color="white"/>
<stop offset="1" stop-color="#FF306B"/>
</linearGradient>
<linearGradient id="paint2_linear_1_175" x1="46.5994" y1="15.5622" x2="46.5532" y2="14.6821" gradientUnits="userSpaceOnUse">
<stop stop-color="#FFB0F4"/>
<stop offset="0.3" stop-color="#FEADF2"/>
<stop offset="0.5" stop-color="#FEA4EF"/>
<stop offset="0.66" stop-color="#FE95E9"/>
<stop offset="0.81" stop-color="#FE80E1"/>
<stop offset="0.95" stop-color="#FE65D6"/>
<stop offset="1" stop-color="#FE5AD2"/>
</linearGradient>
<linearGradient id="paint3_linear_1_175" x1="40.3952" y1="10.6205" x2="47.6982" y2="10.6205" gradientUnits="userSpaceOnUse">
<stop stop-color="white"/>
<stop offset="1" stop-color="#C2AEFD"/>
</linearGradient>
<linearGradient id="paint4_linear_1_175" x1="42.9048" y1="13.3262" x2="45.3175" y2="8.78818" gradientUnits="userSpaceOnUse">
<stop stop-color="white"/>
<stop offset="1" stop-color="#D9CDFC"/>
</linearGradient>
</defs>
</svg>
