<svg width="46" height="30" viewBox="0 0 46 30" fill="none" xmlns="http://www.w3.org/2000/svg">
<path d="M1.68316 20.3298C1.68316 20.3298 -0.867138 17.4555 0.310766 14.3284C1.48867 11.2013 3.86122 10.9182 3.89469 8.10047C3.92008 5.96195 2.73294 4.55627 1.78589 3.60032C0.838832 2.64436 -0.194214 1.4082 0.82729 0.278069C1.56543 -0.538075 3.78158 0.431861 5.42002 3.32652C7.05847 6.2206 7.22814 8.52864 6.35207 10.7103C5.47889 12.8849 2.30761 14.6582 3.22927 16.2835C4.15093 17.9088 1.68316 20.3292 1.68316 20.3292V20.3298Z" fill="black"/>
<path d="M26.2483 14.8466C25.2851 14.8466 24.3703 15.0226 23.5445 15.3401C23.1636 14.2979 22.5819 13.1287 22.3389 12.7233C21.9805 12.1273 21.4386 11.7359 20.9347 12.831C20.6589 13.4311 20.0921 16.169 19.8913 17.1663C19.8653 17.2957 19.698 17.3277 19.6258 17.2176C19.2761 16.6805 18.4514 15.5492 17.1604 14.5758C15.3967 13.2452 9.00738 10.7432 4.48968 14.8466C-0.0280277 18.9501 1.51981 26.3624 3.60783 28.0698C5.69586 29.7778 9.61913 29.6322 12.211 29.3415C14.8028 29.0508 24.5221 29.0869 24.5221 29.0869C24.9729 29.0287 25.4559 28.9366 25.962 28.7962C27.7967 28.2883 28.5048 27.4284 29.292 26.635C29.4842 26.4416 29.7214 26.3024 29.9794 26.2179C30.6038 26.0134 31.3189 25.6109 31.6346 24.9893C32.3675 23.5469 32.8535 21.9781 32.8535 20.6068C32.8535 17.4256 29.8963 14.8466 26.2489 14.8466H26.2483Z" fill="black"/>
<path d="M32.5412 20.6132L29.1512 17.1448C28.7853 16.7702 28.6526 16.2203 28.8148 15.7205C29.1778 14.5996 29.879 13.1788 30.1525 12.7233C30.5109 12.1273 31.0528 11.7359 31.5567 12.831C32.0235 13.8458 32.8107 16.5331 32.8534 20.4752C32.8552 20.6371 32.6543 20.7292 32.5418 20.6138L32.5412 20.6132Z" fill="black"/>
<path d="M28.4621 18.4524C28.4777 18.8596 29.4276 19.0256 29.917 19.007C30.4064 18.9883 30.7908 18.6429 30.7758 18.2351C30.7602 17.8279 30.351 17.5127 29.8616 17.532C29.2868 17.5541 28.4471 18.0452 28.4621 18.4524Z" fill="white"/>
<path d="M25.943 18.4524C25.9275 18.8596 24.9775 19.0256 24.4881 19.007C23.9987 18.9883 23.6144 18.6429 23.6294 18.2351C23.6449 17.8279 24.0541 17.5127 24.5435 17.532C25.1183 17.5541 25.958 18.0452 25.943 18.4524Z" fill="white"/>
<path d="M30.8647 25.4917C30.8647 25.4917 32.214 25.628 32.7328 25.6938C33.711 25.8173 35.2514 25.9006 36.0224 25.6938C36.7363 25.5022 37.2153 25.1794 36.9025 24.3376C36.6186 23.5722 34.1993 22.2982 32.5389 22.4409C30.8791 22.5836 30.8641 25.4922 30.8641 25.4922L30.8647 25.4917Z" fill="black"/>
<path d="M24.522 29.0877C24.522 29.0877 26.7093 30.0664 28.2387 29.9965C29.7675 29.9265 33.3757 29.873 35.3281 28.8972C36.2803 28.4213 36.6202 27.9179 36.5885 27.4874C36.5533 27.0086 36.0016 26.6713 35.7915 26.5816C34.6921 26.1109 33.7202 26.4057 31.5716 26.5554C31.0447 26.5921 30.2806 26.6235 29.3456 26.5816C27.7378 27.417 26.1299 28.2517 24.522 29.0871V29.0877Z" fill="black"/>
<path d="M41 10C38.2386 10 36 7.76142 36 5C36 2.23858 38.2386 0 41 0C43.7614 0 46 2.23858 46 5C46 7.76142 43.7614 10 41 10Z" fill="url(#paint0_radial_41_46)"/>
<path d="M44.3955 6.89975L44.3767 6.81799C44.3481 6.694 44.2914 6.57827 44.2108 6.4798C44.0766 6.31579 43.8846 6.20955 43.6743 6.18302L43.5398 6.16604C43.2072 6.12406 42.8725 6.22724 42.6213 6.44924L42.3443 6.69395C41.9096 7.03138 41.4132 7.28065 40.8829 7.42774L40.3416 7.5779L39.8526 7.66489C39.6241 7.70553 39.5047 7.96015 39.6196 8.16175C39.6492 8.21359 39.692 8.25662 39.7437 8.28641L39.9994 8.4337L40.5641 8.68108L40.6679 8.71567C41.0341 8.83775 41.4203 8.88912 41.8057 8.86703L42.2297 8.8317C42.5708 8.80328 42.9047 8.71805 43.2177 8.57954L43.5163 8.44736C43.721 8.3568 43.9038 8.22343 44.0525 8.05624L44.1109 7.99063C44.2565 7.82688 44.3562 7.62746 44.3997 7.41267L44.4021 7.40112C44.4356 7.23544 44.4334 7.06449 44.3955 6.89975Z" fill="white"/>
<path d="M44.3955 6.89975L44.3767 6.81799C44.3481 6.694 44.2914 6.57827 44.2108 6.4798C44.0766 6.31579 43.8846 6.20955 43.6743 6.18302L43.5398 6.16604C43.2072 6.12406 42.8725 6.22724 42.6213 6.44924L42.3443 6.69395C41.9096 7.03138 41.4132 7.28065 40.8829 7.42774L40.3416 7.5779L39.8526 7.66489C39.6241 7.70553 39.5047 7.96015 39.6196 8.16175C39.6492 8.21359 39.692 8.25662 39.7437 8.28641L39.9994 8.4337L40.5641 8.68108L40.6679 8.71567C41.0341 8.83775 41.4203 8.88912 41.8057 8.86703L42.2297 8.8317C42.5708 8.80328 42.9047 8.71805 43.2177 8.57954L43.5163 8.44736C43.721 8.3568 43.9038 8.22343 44.0525 8.05624L44.1109 7.99063C44.2565 7.82688 44.3562 7.62746 44.3997 7.41267L44.4021 7.40112C44.4356 7.23544 44.4334 7.06449 44.3955 6.89975Z" fill="url(#paint1_linear_41_46)"/>
<path d="M38.5002 6.76953C39.0412 7.58813 40.2748 8.78465 41.993 8.75748C42.4163 8.75056 42.7676 8.71153 43.149 8.58259C43.3021 8.53072 43.3713 8.68288 43.2369 8.77279C42.5354 9.24063 41.8418 9.45998 40.9857 9.45998C39.1227 9.45998 37.5285 8.30989 36.8744 6.68061C36.6654 6.1604 36.7628 5.72369 37.2138 5.70294C37.6851 5.6812 38.0966 6.15892 38.5002 6.77002V6.76953Z" fill="#AA9CFC"/>
<path d="M37.9069 6.85123C37.94 6.58544 38.4385 6.60175 38.7962 6.95942C39.1578 7.32104 38.7912 7.62091 38.522 7.56608C38.1564 7.49148 37.8738 7.11751 37.9069 6.85172V6.85123Z" fill="url(#paint2_linear_41_46)"/>
<path d="M39.1144 0.702271C39.6143 0.434511 40.3548 0.372758 40.9645 0.427101C42.9974 0.608407 44.5876 2.19175 44.7818 4.22317C44.8243 4.6668 44.7971 5.09759 44.7106 5.50614C44.6731 5.68449 44.4221 5.6998 44.3619 5.52739C43.7878 3.87587 42.6343 2.79248 40.2546 2.64674C38.5877 2.54448 37.6669 1.47739 39.1144 0.702271Z" fill="#876BFA"/>
<path d="M39.5166 1.18685C39.3219 1.17302 39.2878 0.980845 39.5027 0.885499C40.0639 0.6375 41.0421 0.648862 41.962 0.885499C43.7069 1.33407 44.5709 2.33941 44.604 3.28694C44.6371 4.23398 43.5572 4.73245 42.5434 4.46667C41.5297 4.20088 40.7333 3.19061 39.6687 3.17875C38.9292 3.17035 38.2395 3.40304 37.7578 3.56903C37.3957 3.69402 37.1971 3.50085 37.3592 3.15355C37.4175 3.02906 37.6921 2.7119 37.8828 2.57209C38.7409 1.94172 39.7522 1.80784 40.5333 1.82414C40.9823 1.83353 41.3217 1.83204 41.5287 1.82908C41.6068 1.82809 41.6344 1.72435 41.5667 1.68532C41.2886 1.52427 40.6785 1.26985 39.5166 1.18636V1.18685Z" fill="#F5F2FF"/>
<path style="mix-blend-mode:multiply" d="M39.5166 1.18685C39.3219 1.17302 39.2878 0.980845 39.5027 0.885499C40.0639 0.6375 41.0421 0.648862 41.962 0.885499C43.7069 1.33407 44.5709 2.33941 44.604 3.28694C44.6371 4.23398 43.5572 4.73245 42.5434 4.46667C41.5297 4.20088 40.7333 3.19061 39.6687 3.17875C38.9292 3.17035 38.2395 3.40304 37.7578 3.56903C37.3957 3.69402 37.1971 3.50085 37.3592 3.15355C37.4175 3.02906 37.6921 2.7119 37.8828 2.57209C38.7409 1.94172 39.7522 1.80784 40.5333 1.82414C40.9823 1.83353 41.3217 1.83204 41.5287 1.82908C41.6068 1.82809 41.6344 1.72435 41.5667 1.68532C41.2886 1.52427 40.6785 1.26985 39.5166 1.18636V1.18685Z" fill="url(#paint3_linear_41_46)"/>
<path style="mix-blend-mode:multiply" d="M39.5166 1.18685C39.3219 1.17302 39.2878 0.980845 39.5027 0.885499C40.0639 0.6375 41.0421 0.648862 41.962 0.885499C43.7069 1.33407 44.5709 2.33941 44.604 3.28694C44.6371 4.23398 43.5572 4.73245 42.5434 4.46667C41.5297 4.20088 40.7333 3.19061 39.6687 3.17875C38.9292 3.17035 38.2395 3.40304 37.7578 3.56903C37.3957 3.69402 37.1971 3.50085 37.3592 3.15355C37.4175 3.02906 37.6921 2.7119 37.8828 2.57209C38.7409 1.94172 39.7522 1.80784 40.5333 1.82414C40.9823 1.83353 41.3217 1.83204 41.5287 1.82908C41.6068 1.82809 41.6344 1.72435 41.5667 1.68532C41.2886 1.52427 40.6785 1.26985 39.5166 1.18636V1.18685Z" fill="url(#paint4_linear_41_46)"/>
<defs>
<radialGradient id="paint0_radial_41_46" cx="0" cy="0" r="1" gradientUnits="userSpaceOnUse" gradientTransform="translate(41 5) rotate(180) scale(5)">
<stop stop-color="#BBA5FB"/>
<stop offset="1" stop-color="#8B67F9"/>
</radialGradient>
<linearGradient id="paint1_linear_41_46" x1="44.3333" y1="6.07391" x2="39.8889" y2="7.74058" gradientUnits="userSpaceOnUse">
<stop stop-color="white"/>
<stop offset="1" stop-color="#AA9CFC"/>
</linearGradient>
<linearGradient id="paint2_linear_41_46" x1="38.4005" y1="7.56311" x2="38.4464" y2="6.68277" gradientUnits="userSpaceOnUse">
<stop stop-color="#CBBCF8"/>
<stop offset="1" stop-color="#B096FB"/>
</linearGradient>
<linearGradient id="paint3_linear_41_46" x1="44.3333" y1="3.33333" x2="37.3019" y2="2.62051" gradientUnits="userSpaceOnUse">
<stop stop-color="white"/>
<stop offset="1" stop-color="#C2AEFD"/>
</linearGradient>
<linearGradient id="paint4_linear_41_46" x1="43.7778" y1="3.33333" x2="39.6825" y2="0.788178" gradientUnits="userSpaceOnUse">
<stop stop-color="white"/>
<stop offset="1" stop-color="#D9CDFC"/>
</linearGradient>
</defs>
</svg>
