<svg width="46" height="30" viewBox="0 0 46 30" fill="none" xmlns="http://www.w3.org/2000/svg">
<path d="M1.68316 20.3298C1.68316 20.3298 -0.867138 17.4555 0.310766 14.3284C1.48867 11.2013 3.86122 10.9182 3.89469 8.10047C3.92008 5.96195 2.73294 4.55627 1.78589 3.60032C0.838832 2.64436 -0.194214 1.4082 0.82729 0.278069C1.56543 -0.538075 3.78158 0.431861 5.42002 3.32652C7.05847 6.2206 7.22814 8.52864 6.35207 10.7103C5.47889 12.8849 2.30761 14.6582 3.22927 16.2835C4.15093 17.9088 1.68316 20.3292 1.68316 20.3292V20.3298Z" fill="black"/>
<path d="M26.2483 14.8466C25.2851 14.8466 24.3703 15.0226 23.5445 15.3401C23.1636 14.2979 22.5819 13.1287 22.3389 12.7233C21.9805 12.1273 21.4386 11.7359 20.9347 12.831C20.6589 13.4311 20.0921 16.169 19.8913 17.1663C19.8653 17.2957 19.698 17.3277 19.6258 17.2176C19.2761 16.6805 18.4514 15.5492 17.1604 14.5758C15.3967 13.2452 9.00738 10.7432 4.48968 14.8466C-0.0280277 18.9501 1.51981 26.3624 3.60783 28.0698C5.69586 29.7778 9.61913 29.6322 12.211 29.3415C14.8028 29.0508 24.5221 29.0869 24.5221 29.0869C24.9729 29.0287 25.4559 28.9366 25.962 28.7962C27.7967 28.2883 28.5048 27.4284 29.292 26.635C29.4842 26.4416 29.7214 26.3024 29.9794 26.2179C30.6038 26.0134 31.3189 25.6109 31.6346 24.9893C32.3675 23.5469 32.8535 21.9781 32.8535 20.6068C32.8535 17.4256 29.8963 14.8466 26.2489 14.8466H26.2483Z" fill="black"/>
<path d="M32.5412 20.6132L29.1512 17.1448C28.7853 16.7702 28.6526 16.2203 28.8148 15.7205C29.1778 14.5996 29.879 13.1788 30.1525 12.7233C30.5109 12.1273 31.0528 11.7359 31.5567 12.831C32.0235 13.8458 32.8107 16.5331 32.8534 20.4752C32.8552 20.6371 32.6543 20.7292 32.5418 20.6138L32.5412 20.6132Z" fill="black"/>
<path d="M28.4621 18.4524C28.4777 18.8596 29.4276 19.0256 29.917 19.007C30.4064 18.9883 30.7908 18.6429 30.7758 18.2351C30.7602 17.8279 30.351 17.5127 29.8616 17.532C29.2868 17.5541 28.4471 18.0452 28.4621 18.4524Z" fill="white"/>
<path d="M25.943 18.4524C25.9275 18.8596 24.9775 19.0256 24.4881 19.007C23.9987 18.9883 23.6144 18.6429 23.6294 18.2351C23.6449 17.8279 24.0541 17.5127 24.5435 17.532C25.1183 17.5541 25.958 18.0452 25.943 18.4524Z" fill="white"/>
<path d="M30.8647 25.4917C30.8647 25.4917 32.214 25.628 32.7328 25.6938C33.711 25.8173 35.2514 25.9006 36.0224 25.6938C36.7363 25.5022 37.2153 25.1794 36.9025 24.3376C36.6186 23.5722 34.1993 22.2982 32.5389 22.4409C30.8791 22.5836 30.8641 25.4922 30.8641 25.4922L30.8647 25.4917Z" fill="black"/>
<path d="M24.522 29.0877C24.522 29.0877 26.7093 30.0664 28.2387 29.9965C29.7675 29.9265 33.3757 29.873 35.3281 28.8972C36.2803 28.4213 36.6202 27.9179 36.5885 27.4874C36.5533 27.0086 36.0016 26.6713 35.7915 26.5816C34.6921 26.1109 33.7202 26.4057 31.5716 26.5554C31.0447 26.5921 30.2806 26.6235 29.3456 26.5816C27.7378 27.417 26.1299 28.2517 24.522 29.0871V29.0877Z" fill="black"/>
<path d="M41.0001 9.99984C38.2387 9.99984 36.0002 7.7613 36.0002 4.99992C36.0002 2.23854 38.2387 0 41.0001 0C43.7615 0 46 2.23854 46 4.99992C46 7.7613 43.7615 9.99984 41.0001 9.99984Z" fill="url(#paint0_radial_41_121)"/>
<path d="M44.3954 6.87742L44.3765 6.79565C44.348 6.67167 44.2912 6.55594 44.2107 6.45748C44.0765 6.29346 43.8845 6.18722 43.6742 6.16069L43.5397 6.14372C43.2071 6.10174 42.8724 6.20491 42.6212 6.42691L42.3442 6.67162C41.9095 7.00904 41.4131 7.2583 40.8828 7.4054L40.3415 7.55555L39.8525 7.64254C39.624 7.68318 39.5047 7.93779 39.6196 8.13939C39.6492 8.19123 39.692 8.23426 39.7437 8.26405L39.9993 8.41133L40.5641 8.65872L40.6678 8.6933C41.0341 8.81538 41.4202 8.86675 41.8056 8.84467L42.2296 8.80933C42.5707 8.78091 42.9046 8.69568 43.2176 8.55718L43.5162 8.425C43.7209 8.33444 43.9037 8.20107 44.0524 8.03388L44.1108 7.96827C44.2564 7.80453 44.3561 7.60511 44.3996 7.39032L44.4019 7.37877C44.4355 7.2131 44.4333 7.04216 44.3954 6.87742Z" fill="white"/>
<path d="M44.3954 6.87742L44.3765 6.79565C44.348 6.67167 44.2912 6.55594 44.2107 6.45748C44.0765 6.29346 43.8845 6.18722 43.6742 6.16069L43.5397 6.14372C43.2071 6.10174 42.8724 6.20491 42.6212 6.42691L42.3442 6.67162C41.9095 7.00904 41.4131 7.2583 40.8828 7.4054L40.3415 7.55555L39.8525 7.64254C39.624 7.68318 39.5047 7.93779 39.6196 8.13939C39.6492 8.19123 39.692 8.23426 39.7437 8.26405L39.9993 8.41133L40.5641 8.65872L40.6678 8.6933C41.0341 8.81538 41.4202 8.86675 41.8056 8.84467L42.2296 8.80933C42.5707 8.78091 42.9046 8.69568 43.2176 8.55718L43.5162 8.425C43.7209 8.33444 43.9037 8.20107 44.0524 8.03388L44.1108 7.96827C44.2564 7.80453 44.3561 7.60511 44.3996 7.39032L44.4019 7.37877C44.4355 7.2131 44.4333 7.04216 44.3954 6.87742Z" fill="url(#paint1_linear_41_121)"/>
<path d="M38.5002 6.76864C39.0414 7.58756 40.2748 8.78384 41.9931 8.75625C42.4166 8.74965 42.7676 8.71005 43.1492 8.58106C43.3022 8.52947 43.3717 8.68125 43.2368 8.77125C42.5348 9.2392 41.8413 9.45818 40.9852 9.45818C39.1224 9.45818 37.5283 8.30809 36.8738 6.67865C36.665 6.1585 36.7622 5.72174 37.2133 5.70074C37.6645 5.67974 38.0959 6.1567 38.4996 6.76804L38.5002 6.76864Z" fill="#FE20C2"/>
<path d="M37.9075 6.85066C37.9405 6.58489 38.439 6.60169 38.7966 6.95865C39.1584 7.32042 38.7918 7.62039 38.5224 7.56519C38.157 7.4902 37.8745 7.11644 37.9075 6.85066Z" fill="url(#paint2_linear_41_121)"/>
<path d="M39.1145 0.702505C39.6143 0.434931 40.3552 0.373137 40.9648 0.427732C42.9974 0.608914 44.5878 2.19216 44.7822 4.22357C44.8248 4.66692 44.7972 5.09768 44.7114 5.50684C44.6736 5.68563 44.4228 5.70002 44.3628 5.52784C43.7887 3.8762 42.635 2.7933 40.2556 2.64692C38.589 2.54433 37.6681 1.47763 39.1151 0.702505H39.1145Z" fill="#FE20C2"/>
<path d="M39.5165 1.18683C39.3218 1.173 39.2877 0.980825 39.5026 0.885481C40.0638 0.637485 41.042 0.648848 41.9618 0.885481C43.7067 1.33405 44.5707 2.33936 44.6038 3.28688C44.6369 4.23391 43.557 4.73237 42.5433 4.46659C41.5296 4.20081 40.7332 3.19055 39.6686 3.17869C38.9291 3.1703 38.2394 3.40298 37.7578 3.56897C37.3956 3.69395 37.1971 3.50079 37.3591 3.1535C37.4174 3.02901 37.6921 2.71185 37.8827 2.57204C38.7408 1.94168 39.7521 1.80781 40.5331 1.82411C40.9822 1.83349 41.3216 1.83201 41.5286 1.82905C41.6066 1.82806 41.6343 1.72432 41.5666 1.68529C41.2885 1.52424 40.6784 1.26982 39.5165 1.18633V1.18683Z" fill="white"/>
<path d="M39.5165 1.18683C39.3218 1.173 39.2877 0.980825 39.5026 0.885481C40.0638 0.637485 41.042 0.648848 41.9618 0.885481C43.7067 1.33405 44.5707 2.33936 44.6038 3.28688C44.6369 4.23391 43.557 4.73237 42.5433 4.46659C41.5296 4.20081 40.7332 3.19055 39.6686 3.17869C38.9291 3.1703 38.2394 3.40298 37.7578 3.56897C37.3956 3.69395 37.1971 3.50079 37.3591 3.1535C37.4174 3.02901 37.6921 2.71185 37.8827 2.57204C38.7408 1.94168 39.7521 1.80781 40.5331 1.82411C40.9822 1.83349 41.3216 1.83201 41.5286 1.82905C41.6066 1.82806 41.6343 1.72432 41.5666 1.68529C41.2885 1.52424 40.6784 1.26982 39.5165 1.18633V1.18683Z" fill="url(#paint3_linear_41_121)" style="mix-blend-mode:multiply"/>
<path d="M39.5165 1.18683C39.3218 1.173 39.2877 0.980825 39.5026 0.885481C40.0638 0.637485 41.042 0.648848 41.9618 0.885481C43.7067 1.33405 44.5707 2.33936 44.6038 3.28688C44.6369 4.23391 43.557 4.73237 42.5433 4.46659C41.5296 4.20081 40.7332 3.19055 39.6686 3.17869C38.9291 3.1703 38.2394 3.40298 37.7578 3.56897C37.3956 3.69395 37.1971 3.50079 37.3591 3.1535C37.4174 3.02901 37.6921 2.71185 37.8827 2.57204C38.7408 1.94168 39.7521 1.80781 40.5331 1.82411C40.9822 1.83349 41.3216 1.83201 41.5286 1.82905C41.6066 1.82806 41.6343 1.72432 41.5666 1.68529C41.2885 1.52424 40.6784 1.26982 39.5165 1.18633V1.18683Z" fill="url(#paint4_linear_41_121)" style="mix-blend-mode:multiply"/>
<g style="mix-blend-mode:hue">
<circle cx="4.99992" cy="4.99992" r="4.99992" transform="matrix(-1 0 0 1 45.9999 0)" fill="#FF336D"/>
</g>
<defs>
<radialGradient id="paint0_radial_41_121" cx="0" cy="0" r="1" gradientUnits="userSpaceOnUse" gradientTransform="translate(41.0001 4.99992) rotate(180) scale(4.99992)">
<stop offset="0.21" stop-color="#C10086"/>
<stop offset="0.39" stop-color="#C70085"/>
<stop offset="0.64" stop-color="#D90082"/>
<stop offset="0.93" stop-color="#F7007E"/>
<stop offset="1" stop-color="#FF007E"/>
</radialGradient>
<linearGradient id="paint1_linear_41_121" x1="43.7776" y1="7.16268" x2="39.3333" y2="8.27378" gradientUnits="userSpaceOnUse">
<stop stop-color="white"/>
<stop offset="1" stop-color="#FF306B"/>
</linearGradient>
<linearGradient id="paint2_linear_41_121" x1="38.4006" y1="7.56219" x2="38.4468" y2="6.68208" gradientUnits="userSpaceOnUse">
<stop stop-color="#FFB0F4"/>
<stop offset="0.3" stop-color="#FEADF2"/>
<stop offset="0.5" stop-color="#FEA4EF"/>
<stop offset="0.66" stop-color="#FE95E9"/>
<stop offset="0.81" stop-color="#FE80E1"/>
<stop offset="0.95" stop-color="#FE65D6"/>
<stop offset="1" stop-color="#FE5AD2"/>
</linearGradient>
<linearGradient id="paint3_linear_41_121" x1="44.6048" y1="2.62046" x2="37.3018" y2="2.62046" gradientUnits="userSpaceOnUse">
<stop stop-color="white"/>
<stop offset="1" stop-color="#C2AEFD"/>
</linearGradient>
<linearGradient id="paint4_linear_41_121" x1="42.0952" y1="5.32618" x2="39.6824" y2="0.78816" gradientUnits="userSpaceOnUse">
<stop stop-color="white"/>
<stop offset="1" stop-color="#D9CDFC"/>
</linearGradient>
</defs>
</svg>
