<svg width="32" height="29" viewBox="0 0 32 29" fill="none" xmlns="http://www.w3.org/2000/svg">
<path d="M29.0115 17.2035C29.8399 18.5266 30.3938 20.2849 29.8004 21.7237C29.144 23.3155 28.0707 24.2578 27.5298 24.583C27.0925 24.8455 24.8998 26.1625 22.4023 25.32C21.9691 25.1737 20.7003 24.7267 19.8637 23.5183C19.8637 23.5183 18.5821 21.7237 19.0071 19.0602C20.0891 16.7259 22.3279 15.2305 24.7017 15.255C27.1104 15.28 28.6846 16.86 29.0121 17.2035H29.0115Z" fill="black"/>
<path d="M19.9451 23.0802L24.0091 24.3952C24.448 24.5374 24.7739 24.9089 24.8478 25.3615C25.0136 26.3753 25.0351 27.758 25.0033 28.2208C24.9617 28.8268 24.6928 29.3482 23.8557 28.7045C23.0796 28.1076 21.3776 26.3462 19.7557 23.3127C19.689 23.1878 19.8101 23.0359 19.9451 23.0797V23.0802Z" fill="black"/>
<path d="M29.1144 17.9669L28.2829 21.8531C28.1602 22.295 28.2927 22.77 28.6319 23.0809C29.3921 23.7776 30.5418 24.558 30.9478 24.7873C31.4795 25.087 32.0975 25.1492 31.9871 24.1038C31.7787 22.1243 31.0879 20.4755 29.4147 17.9388C29.3366 17.8206 29.1524 17.8313 29.1144 17.9674V17.9669Z" fill="black"/>
<path d="M24.4101 22.0919C24.2094 21.7978 23.4185 22.1173 23.0592 22.3589C22.6999 22.6005 22.5716 23.0348 22.7723 23.3288C22.973 23.6229 23.4267 23.6652 23.786 23.4236C24.2074 23.1397 24.6108 22.3859 24.4101 22.0924V22.0919Z" fill="white"/>
<path d="M26.2626 21.2588C26.085 20.9505 26.722 20.3858 27.0987 20.1722C27.4754 19.9587 27.9245 20.0351 28.1021 20.3435C28.2797 20.6518 28.118 21.0749 27.7413 21.2889C27.2989 21.5397 26.4402 21.5677 26.2626 21.2594V21.2588Z" fill="white"/>
<path d="M29.4152 17.9385C29.4152 17.9385 31.9138 14.9605 30.9375 10.6543C29.9921 6.48316 26.3475 3.72431 22.8784 3.08212C20.4291 2.62851 18.4376 3.28191 17.5846 3.57293C14.4974 4.62643 12.6378 6.60752 11.4676 8.3562C9.23337 11.6951 7.36049 16.1919 8.14577 17.3764C8.35313 17.6888 8.68572 17.7591 8.68572 17.7591C9.03576 17.8346 9.31036 17.6195 9.56134 17.3957C9.86827 17.122 10.0335 16.8264 10.0654 16.7673C10.0679 16.7622 10.07 16.7587 10.0705 16.7576C10.0772 16.7454 12.5536 12.4672 14.7201 10.3246C14.8197 10.2262 15.1292 9.95861 15.3596 9.79348C15.3986 9.76596 15.4459 9.81488 15.4156 9.85209C14.85 10.5473 13.2142 12.5992 12.3042 14.0141C12.0753 14.3698 11.9223 14.6389 11.8094 14.8377C10.6258 16.9238 10.6494 17.7867 10.768 18.2729C10.8193 18.4834 10.8917 18.6011 11.0021 18.6827C11.4409 19.0083 12.1826 18.6348 12.6855 18.1215C13.2034 17.593 17.1406 12.6395 18.3027 12.5569C19.4647 12.4744 20.1709 13.4789 20.1981 15.1822C20.2258 16.8856 19.7367 20.4629 19.7367 20.4629L29.4152 17.9375V17.9385Z" fill="black"/>
<path d="M14.9657 4.84021C14.9657 4.84021 12.598 1.8831 8.66133 2.48451C4.61685 3.10274 2.98931 4.96916 1.72361 6.33508C1.37665 6.70969 0.913176 6.92375 0.533877 6.80245C0.199233 6.69491 0.060653 6.37687 0.0313972 6.27698C-0.315566 5.11289 2.25278 1.9886 5.77117 0.68435C11.9785 -1.61733 16.4588 2.53956 17.5838 3.57317C18.2906 4.223 18.3234 4.60984 18.3106 4.74491C18.2526 5.36976 17.3924 5.95079 16.5665 5.91715C15.5375 5.87536 14.9955 4.8973 14.9657 4.84072V4.84021Z" fill="black"/>
<path d="M18.9224 20.3127C18.9224 20.3127 17.0598 19.9478 15.8116 18.56C14.9852 17.641 14.5761 16.8832 15.0827 16.2073C15.5287 15.612 16.3253 15.9015 17.1204 16.5228C17.6146 16.9092 18.8726 17.5916 18.8726 17.5916L19.5142 17.061C19.5142 17.061 18.3378 16.5774 17.4252 15.7583C16.5347 14.9586 16.3561 14.3465 16.6985 13.819C16.9412 13.4449 17.8523 13.3557 18.5524 13.7706C18.8552 13.9505 19.1026 14.1284 19.2858 14.2726C19.5506 14.4811 19.8725 14.6054 20.2097 14.6263L20.3385 14.6345L20.5053 19.1165L18.9219 20.3132L18.9224 20.3127Z" fill="black"/>
<path d="M10.4999 28.9999C12.9852 28.9999 14.9999 26.9852 14.9999 24.4999C14.9999 22.0147 12.9852 20 10.4999 20C8.01469 20 6 22.0147 6 24.4999C6 26.9852 8.01469 28.9999 10.4999 28.9999Z" fill="url(#paint0_radial_1_177)"/>
<path d="M7.44417 26.1897L7.4611 26.1161C7.48678 26.0045 7.53786 25.9003 7.61037 25.8117C7.73114 25.6641 7.90398 25.5685 8.0932 25.5446L8.21426 25.5293C8.51364 25.4916 8.81479 25.5844 9.04092 25.7842L9.29017 26.0045C9.68141 26.3081 10.1282 26.5325 10.6054 26.6649L11.0926 26.8L11.5327 26.8783C11.7384 26.9149 11.8458 27.144 11.7423 27.3254C11.7158 27.3721 11.6772 27.4108 11.6307 27.4376L11.4006 27.5702L10.8923 27.7928L10.7989 27.824C10.4693 27.9338 10.1218 27.9801 9.77494 27.9602L9.39333 27.9284C9.08637 27.9028 8.78585 27.8261 8.50418 27.7015L8.23537 27.5825C8.05121 27.501 7.88666 27.381 7.75282 27.2305L7.70029 27.1714C7.5692 27.0241 7.47951 26.8446 7.44034 26.6513L7.43824 26.6409C7.40802 26.4918 7.41005 26.3379 7.44417 26.1897Z" fill="white"/>
<path d="M7.44417 26.1897L7.4611 26.1161C7.48678 26.0045 7.53786 25.9003 7.61037 25.8117C7.73114 25.6641 7.90398 25.5685 8.0932 25.5446L8.21426 25.5293C8.51364 25.4916 8.81479 25.5844 9.04092 25.7842L9.29017 26.0045C9.68141 26.3081 10.1282 26.5325 10.6054 26.6649L11.0926 26.8L11.5327 26.8783C11.7384 26.9149 11.8458 27.144 11.7423 27.3254C11.7158 27.3721 11.6772 27.4108 11.6307 27.4376L11.4006 27.5702L10.8923 27.7928L10.7989 27.824C10.4693 27.9338 10.1218 27.9801 9.77494 27.9602L9.39333 27.9284C9.08637 27.9028 8.78585 27.8261 8.50418 27.7015L8.23537 27.5825C8.05121 27.501 7.88666 27.381 7.75282 27.2305L7.70029 27.1714C7.5692 27.0241 7.47951 26.8446 7.44034 26.6513L7.43824 26.6409C7.40802 26.4918 7.41005 26.3379 7.44417 26.1897Z" fill="url(#paint1_linear_1_177)"/>
<path d="M12.7498 26.0918C12.2628 26.8288 11.1526 27.9055 9.60622 27.8806C9.22502 27.8747 8.90915 27.839 8.56574 27.723C8.42805 27.6765 8.36542 27.8131 8.48691 27.8941C9.11865 28.3153 9.74283 28.5124 10.5133 28.5124C12.1899 28.5124 13.6245 27.4773 14.2136 26.0108C14.4015 25.5426 14.314 25.1496 13.908 25.1307C13.5019 25.1118 13.1137 25.541 12.7503 26.0912L12.7498 26.0918Z" fill="#FE20C2"/>
<path d="M13.2833 26.1656C13.2536 25.9264 12.8049 25.9415 12.4831 26.2628C12.1575 26.5884 12.4874 26.8583 12.7298 26.8087C13.0586 26.7412 13.313 26.4048 13.2833 26.1656Z" fill="url(#paint2_linear_1_177)"/>
<path d="M12.1969 20.6323C11.7471 20.3914 11.0803 20.3358 10.5317 20.385C8.70232 20.548 7.27092 21.9729 7.09598 23.8012C7.05764 24.2002 7.08248 24.5879 7.15969 24.9562C7.19371 25.1171 7.41941 25.13 7.4734 24.9751C7.99013 23.4886 9.02845 22.514 11.1699 22.3822C12.6699 22.2899 13.4987 21.3299 12.1963 20.6323H12.1969Z" fill="#FE20C2"/>
<path d="M11.8351 21.0682C12.0103 21.0557 12.041 20.8828 11.8476 20.7969C11.3425 20.5738 10.4622 20.584 9.63432 20.7969C8.06394 21.2007 7.28632 22.1054 7.25653 22.9582C7.22674 23.8105 8.19866 24.2591 9.11101 24.0199C10.0234 23.7807 10.7401 22.8715 11.6982 22.8608C12.3638 22.8533 12.9845 23.0627 13.418 23.2121C13.7439 23.3246 13.9226 23.1507 13.7768 22.8382C13.7243 22.7261 13.4771 22.4407 13.3055 22.3149C12.5332 21.7475 11.6231 21.627 10.9201 21.6417C10.516 21.6502 10.2105 21.6488 10.0242 21.6462C9.95399 21.6453 9.92909 21.5519 9.99001 21.5168C10.2403 21.3718 10.7894 21.1429 11.8351 21.0677V21.0682Z" fill="white"/>
<path d="M11.8351 21.0682C12.0103 21.0557 12.041 20.8828 11.8476 20.7969C11.3425 20.5738 10.4622 20.584 9.63432 20.7969C8.06394 21.2007 7.28632 22.1054 7.25653 22.9582C7.22674 23.8105 8.19866 24.2591 9.11101 24.0199C10.0234 23.7807 10.7401 22.8715 11.6982 22.8608C12.3638 22.8533 12.9845 23.0627 13.418 23.2121C13.7439 23.3246 13.9226 23.1507 13.7768 22.8382C13.7243 22.7261 13.4771 22.4407 13.3055 22.3149C12.5332 21.7475 11.6231 21.627 10.9201 21.6417C10.516 21.6502 10.2105 21.6488 10.0242 21.6462C9.95399 21.6453 9.92909 21.5519 9.99001 21.5168C10.2403 21.3718 10.7894 21.1429 11.8351 21.0677V21.0682Z" fill="url(#paint3_linear_1_177)" style="mix-blend-mode:multiply"/>
<path d="M11.8351 21.0682C12.0103 21.0557 12.041 20.8828 11.8476 20.7969C11.3425 20.5738 10.4622 20.584 9.63432 20.7969C8.06394 21.2007 7.28632 22.1054 7.25653 22.9582C7.22674 23.8105 8.19866 24.2591 9.11101 24.0199C10.0234 23.7807 10.7401 22.8715 11.6982 22.8608C12.3638 22.8533 12.9845 23.0627 13.418 23.2121C13.7439 23.3246 13.9226 23.1507 13.7768 22.8382C13.7243 22.7261 13.4771 22.4407 13.3055 22.3149C12.5332 21.7475 11.6231 21.627 10.9201 21.6417C10.516 21.6502 10.2105 21.6488 10.0242 21.6462C9.95399 21.6453 9.92909 21.5519 9.99001 21.5168C10.2403 21.3718 10.7894 21.1429 11.8351 21.0677V21.0682Z" fill="url(#paint4_linear_1_177)" style="mix-blend-mode:multiply"/>
<g style="mix-blend-mode:hue">
<circle cx="10.5001" cy="24.4999" r="4.49993" fill="#FF336D"/>
</g>
<defs>
<radialGradient id="paint0_radial_1_177" cx="0" cy="0" r="1" gradientUnits="userSpaceOnUse" gradientTransform="translate(10.4999 24.4999) scale(4.49993)">
<stop offset="0.21" stop-color="#C10086"/>
<stop offset="0.39" stop-color="#C70085"/>
<stop offset="0.64" stop-color="#D90082"/>
<stop offset="0.93" stop-color="#F7007E"/>
<stop offset="1" stop-color="#FF007E"/>
</radialGradient>
<linearGradient id="paint1_linear_1_177" x1="8.00012" y1="26.4464" x2="12.0001" y2="27.4464" gradientUnits="userSpaceOnUse">
<stop stop-color="white"/>
<stop offset="1" stop-color="#FF306B"/>
</linearGradient>
<linearGradient id="paint2_linear_1_177" x1="12.8394" y1="26.806" x2="12.7979" y2="26.0139" gradientUnits="userSpaceOnUse">
<stop stop-color="#FFB0F4"/>
<stop offset="0.3" stop-color="#FEADF2"/>
<stop offset="0.5" stop-color="#FEA4EF"/>
<stop offset="0.66" stop-color="#FE95E9"/>
<stop offset="0.81" stop-color="#FE80E1"/>
<stop offset="0.95" stop-color="#FE65D6"/>
<stop offset="1" stop-color="#FE5AD2"/>
</linearGradient>
<linearGradient id="paint3_linear_1_177" x1="7.25564" y1="22.3584" x2="13.8283" y2="22.3584" gradientUnits="userSpaceOnUse">
<stop stop-color="white"/>
<stop offset="1" stop-color="#C2AEFD"/>
</linearGradient>
<linearGradient id="paint4_linear_1_177" x1="9.51427" y1="24.7936" x2="11.6858" y2="20.7094" gradientUnits="userSpaceOnUse">
<stop stop-color="white"/>
<stop offset="1" stop-color="#D9CDFC"/>
</linearGradient>
</defs>
</svg>
