<svg width="32" height="29" viewBox="0 0 32 29" fill="none" xmlns="http://www.w3.org/2000/svg">
<path d="M29.0115 17.2035C29.8399 18.5266 30.3938 20.2849 29.8004 21.7237C29.144 23.3155 28.0707 24.2578 27.5298 24.583C27.0925 24.8455 24.8998 26.1625 22.4023 25.32C21.9691 25.1737 20.7003 24.7267 19.8637 23.5183C19.8637 23.5183 18.5821 21.7237 19.0071 19.0602C20.0891 16.7259 22.3279 15.2305 24.7017 15.255C27.1104 15.28 28.6846 16.86 29.0121 17.2035H29.0115Z" fill="black"/>
<path d="M19.9451 23.0802L24.0091 24.3952C24.448 24.5374 24.7739 24.9089 24.8478 25.3615C25.0136 26.3753 25.0351 27.758 25.0033 28.2208C24.9617 28.8268 24.6928 29.3482 23.8557 28.7045C23.0796 28.1076 21.3776 26.3462 19.7557 23.3127C19.689 23.1878 19.8101 23.0359 19.9451 23.0797V23.0802Z" fill="black"/>
<path d="M29.1144 17.9669L28.2829 21.8531C28.1602 22.295 28.2927 22.77 28.6319 23.0809C29.3921 23.7776 30.5418 24.558 30.9478 24.7873C31.4795 25.087 32.0975 25.1492 31.9871 24.1038C31.7787 22.1243 31.0879 20.4755 29.4147 17.9388C29.3366 17.8206 29.1524 17.8313 29.1144 17.9674V17.9669Z" fill="black"/>
<path d="M24.4101 22.0919C24.2094 21.7978 23.4185 22.1173 23.0592 22.3589C22.6999 22.6005 22.5716 23.0348 22.7723 23.3288C22.973 23.6229 23.4267 23.6652 23.786 23.4236C24.2074 23.1397 24.6108 22.3859 24.4101 22.0924V22.0919Z" fill="white"/>
<path d="M26.2626 21.2588C26.085 20.9505 26.722 20.3858 27.0987 20.1722C27.4754 19.9587 27.9245 20.0351 28.1021 20.3435C28.2797 20.6518 28.118 21.0749 27.7413 21.2889C27.2989 21.5397 26.4402 21.5677 26.2626 21.2594V21.2588Z" fill="white"/>
<path d="M29.4152 17.9385C29.4152 17.9385 31.9138 14.9605 30.9375 10.6543C29.9921 6.48316 26.3475 3.72431 22.8784 3.08212C20.4291 2.62851 18.4376 3.28191 17.5846 3.57293C14.4974 4.62643 12.6378 6.60752 11.4676 8.3562C9.23337 11.6951 7.36049 16.1919 8.14577 17.3764C8.35313 17.6888 8.68572 17.7591 8.68572 17.7591C9.03576 17.8346 9.31036 17.6195 9.56134 17.3957C9.86827 17.122 10.0335 16.8264 10.0654 16.7673C10.0679 16.7622 10.07 16.7587 10.0705 16.7576C10.0772 16.7454 12.5536 12.4672 14.7201 10.3246C14.8197 10.2262 15.1292 9.95861 15.3596 9.79348C15.3986 9.76596 15.4459 9.81488 15.4156 9.85209C14.85 10.5473 13.2142 12.5992 12.3042 14.0141C12.0753 14.3698 11.9223 14.6389 11.8094 14.8377C10.6258 16.9238 10.6494 17.7867 10.768 18.2729C10.8193 18.4834 10.8917 18.6011 11.0021 18.6827C11.4409 19.0083 12.1826 18.6348 12.6855 18.1215C13.2034 17.593 17.1406 12.6395 18.3027 12.5569C19.4647 12.4744 20.1709 13.4789 20.1981 15.1822C20.2258 16.8856 19.7367 20.4629 19.7367 20.4629L29.4152 17.9375V17.9385Z" fill="black"/>
<path d="M14.9657 4.84021C14.9657 4.84021 12.598 1.8831 8.66133 2.48451C4.61685 3.10274 2.98931 4.96916 1.72361 6.33508C1.37665 6.70969 0.913176 6.92375 0.533877 6.80245C0.199233 6.69491 0.060653 6.37687 0.0313972 6.27698C-0.315566 5.11289 2.25278 1.9886 5.77117 0.68435C11.9785 -1.61733 16.4588 2.53956 17.5838 3.57317C18.2906 4.223 18.3234 4.60984 18.3106 4.74491C18.2526 5.36976 17.3924 5.95079 16.5665 5.91715C15.5375 5.87536 14.9955 4.8973 14.9657 4.84072V4.84021Z" fill="black"/>
<path d="M18.9224 20.3127C18.9224 20.3127 17.0598 19.9478 15.8116 18.56C14.9852 17.641 14.5761 16.8832 15.0827 16.2073C15.5287 15.612 16.3253 15.9015 17.1204 16.5228C17.6146 16.9092 18.8726 17.5916 18.8726 17.5916L19.5142 17.061C19.5142 17.061 18.3378 16.5774 17.4252 15.7583C16.5347 14.9586 16.3561 14.3465 16.6985 13.819C16.9412 13.4449 17.8523 13.3557 18.5524 13.7706C18.8552 13.9505 19.1026 14.1284 19.2858 14.2726C19.5506 14.4811 19.8725 14.6054 20.2097 14.6263L20.3385 14.6345L20.5053 19.1165L18.9219 20.3132L18.9224 20.3127Z" fill="black"/>
<path d="M10.5 29C12.9853 29 15 26.9853 15 24.5C15 22.0147 12.9853 20 10.5 20C8.01472 20 6 22.0147 6 24.5C6 26.9853 8.01472 29 10.5 29Z" fill="url(#paint0_radial_1_425)"/>
<path d="M7.44405 26.2098L7.46098 26.1362C7.48666 26.0246 7.53774 25.9204 7.61025 25.8318C7.73103 25.6842 7.90387 25.5886 8.09309 25.5647L8.21415 25.5494C8.51353 25.5116 8.8147 25.6045 9.04082 25.8043L9.29008 26.0245C9.68132 26.3282 10.1281 26.5526 10.6054 26.685L11.0925 26.8201L11.5327 26.8984C11.7383 26.935 11.8457 27.1641 11.7423 27.3456C11.7157 27.3922 11.6772 27.4309 11.6306 27.4578L11.4006 27.5903L10.8923 27.813L10.7989 27.8441C10.4693 27.954 10.1217 28.0002 9.77486 27.9803L9.39324 27.9485C9.08628 27.9229 8.78575 27.8462 8.50407 27.7216L8.23526 27.6026C8.0511 27.5211 7.88655 27.4011 7.7527 27.2506L7.70017 27.1915C7.56908 27.0442 7.47939 26.8647 7.44022 26.6714L7.43812 26.661C7.4079 26.5119 7.40993 26.358 7.44405 26.2098Z" fill="white"/>
<path d="M7.44405 26.2098L7.46098 26.1362C7.48666 26.0246 7.53774 25.9204 7.61025 25.8318C7.73103 25.6842 7.90387 25.5886 8.09309 25.5647L8.21415 25.5494C8.51353 25.5116 8.8147 25.6045 9.04082 25.8043L9.29008 26.0245C9.68132 26.3282 10.1281 26.5526 10.6054 26.685L11.0925 26.8201L11.5327 26.8984C11.7383 26.935 11.8457 27.1641 11.7423 27.3456C11.7157 27.3922 11.6772 27.4309 11.6306 27.4578L11.4006 27.5903L10.8923 27.813L10.7989 27.8441C10.4693 27.954 10.1217 28.0002 9.77486 27.9803L9.39324 27.9485C9.08628 27.9229 8.78575 27.8462 8.50407 27.7216L8.23526 27.6026C8.0511 27.5211 7.88655 27.4011 7.7527 27.2506L7.70017 27.1915C7.56908 27.0442 7.47939 26.8647 7.44022 26.6714L7.43812 26.661C7.4079 26.5119 7.40993 26.358 7.44405 26.2098Z" fill="url(#paint1_linear_1_425)"/>
<path d="M12.7498 26.0925C12.2629 26.8293 11.1527 27.9061 9.60631 27.8817C9.22527 27.8755 8.90915 27.8403 8.5659 27.7243C8.42807 27.6776 8.36582 27.8145 8.48676 27.8955C9.11812 28.3165 9.74237 28.5139 10.5129 28.5139C12.1896 28.5139 13.6243 27.4789 14.213 26.0125C14.4011 25.5443 14.3135 25.1513 13.9076 25.1326C13.4834 25.113 13.113 25.543 12.7498 26.093V26.0925Z" fill="#AA9CFC"/>
<path d="M13.2837 26.1661C13.2539 25.9269 12.8053 25.9416 12.4834 26.2635C12.1579 26.5889 12.4879 26.8588 12.7302 26.8095C13.0592 26.7423 13.3135 26.4057 13.2837 26.1665V26.1661Z" fill="url(#paint2_linear_1_425)"/>
<path d="M12.1971 20.6321C11.7471 20.3911 11.0806 20.3355 10.532 20.3844C8.70238 20.5476 7.27115 21.9726 7.09641 23.8009C7.05817 24.2001 7.08263 24.5879 7.16043 24.9556C7.19423 25.1161 7.42009 25.1298 7.47434 24.9747C7.99099 23.4883 9.02917 22.5133 11.1709 22.3821C12.6711 22.2901 13.4998 21.3297 12.1971 20.6321Z" fill="#876BFA"/>
<path d="M11.8351 21.0682C12.0103 21.0557 12.041 20.8828 11.8476 20.7969C11.3425 20.5737 10.4621 20.584 9.63423 20.7969C8.06383 21.2007 7.28619 22.1055 7.25641 22.9582C7.22662 23.8106 8.19855 24.2592 9.11091 24.02C10.0233 23.7808 10.74 22.8715 11.6982 22.8609C12.3638 22.8533 12.9844 23.0627 13.4179 23.2121C13.7439 23.3246 13.9226 23.1508 13.7768 22.8382C13.7243 22.7262 13.4771 22.4407 13.3055 22.3149C12.5332 21.7475 11.623 21.6271 10.9201 21.6417C10.5159 21.6502 10.2105 21.6488 10.0242 21.6462C9.95391 21.6453 9.92902 21.5519 9.98993 21.5168C10.2402 21.3718 10.7894 21.1429 11.8351 21.0677V21.0682Z" fill="#F5F2FF"/>
<path style="mix-blend-mode:multiply" d="M11.8351 21.0682C12.0103 21.0557 12.041 20.8828 11.8476 20.7969C11.3425 20.5737 10.4621 20.584 9.63423 20.7969C8.06383 21.2007 7.28619 22.1055 7.25641 22.9582C7.22662 23.8106 8.19855 24.2592 9.11091 24.02C10.0233 23.7808 10.74 22.8715 11.6982 22.8609C12.3638 22.8533 12.9844 23.0627 13.4179 23.2121C13.7439 23.3246 13.9226 23.1508 13.7768 22.8382C13.7243 22.7262 13.4771 22.4407 13.3055 22.3149C12.5332 21.7475 11.623 21.6271 10.9201 21.6417C10.5159 21.6502 10.2105 21.6488 10.0242 21.6462C9.95391 21.6453 9.92902 21.5519 9.98993 21.5168C10.2402 21.3718 10.7894 21.1429 11.8351 21.0677V21.0682Z" fill="url(#paint3_linear_1_425)"/>
<path style="mix-blend-mode:multiply" d="M11.8351 21.0682C12.0103 21.0557 12.041 20.8828 11.8476 20.7969C11.3425 20.5737 10.4621 20.584 9.63423 20.7969C8.06383 21.2007 7.28619 22.1055 7.25641 22.9582C7.22662 23.8106 8.19855 24.2592 9.11091 24.02C10.0233 23.7808 10.74 22.8715 11.6982 22.8609C12.3638 22.8533 12.9844 23.0627 13.4179 23.2121C13.7439 23.3246 13.9226 23.1508 13.7768 22.8382C13.7243 22.7262 13.4771 22.4407 13.3055 22.3149C12.5332 21.7475 11.623 21.6271 10.9201 21.6417C10.5159 21.6502 10.2105 21.6488 10.0242 21.6462C9.95391 21.6453 9.92902 21.5519 9.98993 21.5168C10.2402 21.3718 10.7894 21.1429 11.8351 21.0677V21.0682Z" fill="url(#paint4_linear_1_425)"/>
<defs>
<radialGradient id="paint0_radial_1_425" cx="0" cy="0" r="1" gradientUnits="userSpaceOnUse" gradientTransform="translate(10.5 24.5) scale(4.5)">
<stop stop-color="#BBA5FB"/>
<stop offset="1" stop-color="#8B67F9"/>
</radialGradient>
<linearGradient id="paint1_linear_1_425" x1="7.5" y1="25.4665" x2="11.5" y2="26.9665" gradientUnits="userSpaceOnUse">
<stop stop-color="white"/>
<stop offset="1" stop-color="#AA9CFC"/>
</linearGradient>
<linearGradient id="paint2_linear_1_425" x1="12.8395" y1="26.8068" x2="12.7982" y2="26.0145" gradientUnits="userSpaceOnUse">
<stop stop-color="#CBBCF8"/>
<stop offset="1" stop-color="#B096FB"/>
</linearGradient>
<linearGradient id="paint3_linear_1_425" x1="7.5" y1="23" x2="13.8283" y2="22.3585" gradientUnits="userSpaceOnUse">
<stop stop-color="white"/>
<stop offset="1" stop-color="#C2AEFD"/>
</linearGradient>
<linearGradient id="paint4_linear_1_425" x1="8" y1="23" x2="11.6857" y2="20.7094" gradientUnits="userSpaceOnUse">
<stop stop-color="white"/>
<stop offset="1" stop-color="#D9CDFC"/>
</linearGradient>
</defs>
</svg>
