<svg width="49" height="25" viewBox="0 0 49 25" fill="none" xmlns="http://www.w3.org/2000/svg">
<path d="M10.7306 4.71596C11.0371 2.92557 10.93 1.95305 10.0717 0.625497C9.21386 -0.702053 6.68526 0.177898 7.65065 2.40064C8.31496 3.93021 6.93553 6.16494 5.26042 7.17013C3.09993 8.46664 1.51131 9.4506 0.342146 12.4487C-0.669185 15.0418 0.755651 17.851 2.08806 18.9335C3.41452 20.0116 4.95881 20.1189 6.08095 19.9441C8.12253 19.6272 7.39444 17.894 6.47878 18.1167C5.33556 18.3944 3.66208 17.5439 3.20749 16.3072C2.64048 14.7635 2.89777 12.8582 4.12693 11.4299C5.72042 9.57747 10.1819 7.92375 10.7306 4.71542V4.71596Z" fill="black"/>
<path d="M36.7726 11.1058C36.7726 7.75643 33.6532 5.04089 29.8046 5.04089C25.956 5.04089 22.8296 7.69871 22.8296 11.0481C22.8296 11.0513 22.8296 11.0552 22.8296 11.0584C22.8302 11.2871 22.5361 11.3737 22.4145 11.1804C20.7448 8.5351 16.986 6.42235 12.7071 7.77059C6.95426 9.58277 5.54078 14.3844 5.44457 14.7628C4.58674 18.128 5.68402 22.9307 8.70288 22.635C15.3271 21.9865 17.273 23.1441 22.881 24.2092C27.3711 25.0619 31.7586 21.3254 32.3808 20.1808C33.6218 17.8966 34.6483 16.5227 35.2256 15.5927C36.1234 14.1453 36.7731 12.5493 36.7731 11.1058H36.7726Z" fill="black"/>
<path d="M36.4436 11.1138L32.8675 7.46168C32.4816 7.06744 32.3416 6.48861 32.5124 5.96206C32.8956 4.78207 33.635 3.28572 33.9237 2.80654C34.3015 2.17871 34.8734 1.76705 35.4047 2.9198C35.8972 3.98816 36.728 6.81751 36.7728 10.9679C36.7744 11.1383 36.5625 11.2352 36.4436 11.1138Z" fill="black"/>
<path d="M23.1598 11.1138L26.736 7.46168C27.1219 7.06744 27.2619 6.48861 27.0911 5.96206C26.7079 4.78207 25.9684 3.28572 25.6798 2.80654C25.3019 2.17871 24.7301 1.76705 24.1987 2.9198C23.7063 3.98816 22.8755 6.81751 22.8306 10.9679C22.829 11.1383 23.0409 11.2352 23.1598 11.1138Z" fill="black"/>
<path d="M31.042 9.61608C31.0582 10.0452 32.0604 10.22 32.5771 10.1998C33.0939 10.1797 33.4993 9.81592 33.4831 9.38738C33.4668 8.95829 33.035 8.62722 32.5182 8.64682C31.9117 8.67024 31.0258 9.18699 31.042 9.61608Z" fill="white"/>
<path d="M28.5674 9.61608C28.5511 10.0452 27.549 10.22 27.0323 10.1998C26.5155 10.1797 26.1101 9.81592 26.1263 9.38738C26.1425 8.95829 26.5744 8.62722 27.0912 8.64682C27.6976 8.67024 28.5836 9.18699 28.5674 9.61608Z" fill="white"/>
<path d="M24.1064 22.2349C26.8031 24.3961 28.3917 24.5394 30.0003 24.7871C34.2802 25.4454 38.4012 24.4811 39.3672 23.2848C40.3331 22.0885 39.2855 21.0212 37.4672 21.2265C35.8656 21.4078 31.3998 21.5559 29.9901 21.0157C29.0106 20.64 29.5393 20.1467 31.369 20.1603C34.4029 20.1832 37.4823 20.9232 38.8153 20.6912C40.1482 20.4592 40.4093 19.1213 39.3272 18.3252C38.0964 17.4197 34.2651 16.4308 30.1279 16.4308C27.4063 16.4308 21.1432 19.8597 24.1064 22.2344V22.2349Z" fill="black"/>
<path d="M6.64572 20.6098C6.26789 20.7198 6.10897 21.1718 6.33491 21.4963C6.94031 22.3675 8.25271 23.8846 10.2251 24.2102C13.0288 24.673 16.3234 24.1639 17.4266 24.0251C18.5298 23.8862 19.3725 22.6823 17.4877 22.312C15.6028 21.9417 9.99538 20.3669 8.43217 20.3669C7.67543 20.3669 7.06949 20.4862 6.64572 20.6098Z" fill="black"/>
<path d="M44 18C46.7614 18 49 15.7614 49 13C49 10.2386 46.7614 8 44 8C41.2386 8 39 10.2386 39 13C39 15.7614 41.2386 18 44 18Z" fill="url(#paint0_radial_1_176)"/>
<path d="M40.6045 14.8997L40.6233 14.818C40.6518 14.694 40.7086 14.5782 40.7892 14.4798C40.9234 14.3158 41.1154 14.2095 41.3257 14.183L41.4602 14.166C41.7928 14.124 42.1274 14.2272 42.3787 14.4492L42.6556 14.6939C43.0904 15.0314 43.5868 15.2806 44.1171 15.4277L44.6584 15.5779L45.1474 15.6649C45.3759 15.7055 45.4952 15.9601 45.3803 16.1617C45.3508 16.2136 45.3079 16.2566 45.2562 16.2864L45.0006 16.4337L44.4358 16.681L44.3321 16.7156C43.9658 16.8377 43.5797 16.8891 43.1943 16.867L42.7703 16.8317C42.4292 16.8032 42.0953 16.718 41.7823 16.5795L41.4836 16.4473C41.279 16.3568 41.0962 16.2234 40.9474 16.0562L40.8891 15.9906C40.7434 15.8268 40.6438 15.6274 40.6002 15.4126L40.5979 15.4011C40.5643 15.2354 40.5666 15.0645 40.6045 14.8997Z" fill="white"/>
<path d="M40.6045 14.8997L40.6233 14.818C40.6518 14.694 40.7086 14.5782 40.7892 14.4798C40.9234 14.3158 41.1154 14.2095 41.3257 14.183L41.4602 14.166C41.7928 14.124 42.1274 14.2272 42.3787 14.4492L42.6556 14.6939C43.0904 15.0314 43.5868 15.2806 44.1171 15.4277L44.6584 15.5779L45.1474 15.6649C45.3759 15.7055 45.4952 15.9601 45.3803 16.1617C45.3508 16.2136 45.3079 16.2566 45.2562 16.2864L45.0006 16.4337L44.4358 16.681L44.3321 16.7156C43.9658 16.8377 43.5797 16.8891 43.1943 16.867L42.7703 16.8317C42.4292 16.8032 42.0953 16.718 41.7823 16.5795L41.4836 16.4473C41.279 16.3568 41.0962 16.2234 40.9474 16.0562L40.8891 15.9906C40.7434 15.8268 40.6438 15.6274 40.6002 15.4126L40.5979 15.4011C40.5643 15.2354 40.5666 15.0645 40.6045 14.8997Z" fill="url(#paint1_linear_1_176)"/>
<path d="M46.4997 14.7695C45.9588 15.5881 44.7252 16.7846 43.007 16.7575C42.5836 16.7505 42.2324 16.7115 41.851 16.5826C41.6978 16.5307 41.6287 16.6829 41.7631 16.7728C42.4646 17.2406 43.1582 17.46 44.0143 17.46C45.8773 17.46 47.4715 16.3099 48.1256 14.6806C48.3345 14.1604 48.2372 13.7237 47.7862 13.7029C47.3149 13.6812 46.9034 14.1589 46.4997 14.77V14.7695Z" fill="#AA9CFC"/>
<path d="M47.093 14.8512C47.0599 14.5854 46.5615 14.6017 46.2038 14.9594C45.8422 15.321 46.2087 15.6209 46.478 15.5661C46.8435 15.4915 47.1261 15.1175 47.093 14.8517V14.8512Z" fill="url(#paint2_linear_1_176)"/>
<path d="M45.8856 8.70229C45.3857 8.43453 44.6452 8.37277 44.0355 8.42712C42.0026 8.60842 40.4124 10.1918 40.2182 12.2232C40.1757 12.6668 40.2029 13.0976 40.2894 13.5062C40.3269 13.6845 40.5779 13.6998 40.6381 13.5274C41.2122 11.8759 42.3657 10.7925 44.7454 10.6468C46.4123 10.5445 47.3331 9.47741 45.8856 8.70229Z" fill="#876BFA"/>
<path d="M45.4834 9.18685C45.6781 9.17302 45.7122 8.98085 45.4973 8.8855C44.9361 8.6375 43.9579 8.64886 43.038 8.8855C41.2931 9.33407 40.4291 10.3394 40.396 11.2869C40.3629 12.234 41.4428 12.7325 42.4566 12.4667C43.4703 12.2009 44.2667 11.1906 45.3313 11.1788C46.0708 11.1704 46.7605 11.403 47.2422 11.569C47.6043 11.694 47.8029 11.5009 47.6408 11.1536C47.5825 11.0291 47.3079 10.7119 47.1172 10.5721C46.2591 9.94172 45.2478 9.80784 44.4667 9.82414C44.0177 9.83353 43.6783 9.83204 43.4713 9.82908C43.3932 9.82809 43.3656 9.72435 43.4333 9.68532C43.7114 9.52427 44.3215 9.26985 45.4834 9.18636V9.18685Z" fill="#F5F2FF"/>
<path style="mix-blend-mode:multiply" d="M45.4834 9.18685C45.6781 9.17302 45.7122 8.98085 45.4973 8.8855C44.9361 8.6375 43.9579 8.64886 43.038 8.8855C41.2931 9.33407 40.4291 10.3394 40.396 11.2869C40.3629 12.234 41.4428 12.7325 42.4566 12.4667C43.4703 12.2009 44.2667 11.1906 45.3313 11.1788C46.0708 11.1704 46.7605 11.403 47.2422 11.569C47.6043 11.694 47.8029 11.5009 47.6408 11.1536C47.5825 11.0291 47.3079 10.7119 47.1172 10.5721C46.2591 9.94172 45.2478 9.80784 44.4667 9.82414C44.0177 9.83353 43.6783 9.83204 43.4713 9.82908C43.3932 9.82809 43.3656 9.72435 43.4333 9.68532C43.7114 9.52427 44.3215 9.26985 45.4834 9.18636V9.18685Z" fill="url(#paint3_linear_1_176)"/>
<path style="mix-blend-mode:multiply" d="M45.4834 9.18685C45.6781 9.17302 45.7122 8.98085 45.4973 8.8855C44.9361 8.6375 43.9579 8.64886 43.038 8.8855C41.2931 9.33407 40.4291 10.3394 40.396 11.2869C40.3629 12.234 41.4428 12.7325 42.4566 12.4667C43.4703 12.2009 44.2667 11.1906 45.3313 11.1788C46.0708 11.1704 46.7605 11.403 47.2422 11.569C47.6043 11.694 47.8029 11.5009 47.6408 11.1536C47.5825 11.0291 47.3079 10.7119 47.1172 10.5721C46.2591 9.94172 45.2478 9.80784 44.4667 9.82414C44.0177 9.83353 43.6783 9.83204 43.4713 9.82908C43.3932 9.82809 43.3656 9.72435 43.4333 9.68532C43.7114 9.52427 44.3215 9.26985 45.4834 9.18636V9.18685Z" fill="url(#paint4_linear_1_176)"/>
<defs>
<radialGradient id="paint0_radial_1_176" cx="0" cy="0" r="1" gradientUnits="userSpaceOnUse" gradientTransform="translate(44 13) scale(5)">
<stop stop-color="#BBA5FB"/>
<stop offset="1" stop-color="#8B67F9"/>
</radialGradient>
<linearGradient id="paint1_linear_1_176" x1="40.6667" y1="14.0739" x2="45.1111" y2="15.7405" gradientUnits="userSpaceOnUse">
<stop stop-color="white"/>
<stop offset="1" stop-color="#AA9CFC"/>
</linearGradient>
<linearGradient id="paint2_linear_1_176" x1="46.5995" y1="15.5631" x2="46.5536" y2="14.6828" gradientUnits="userSpaceOnUse">
<stop stop-color="#CBBCF8"/>
<stop offset="1" stop-color="#B096FB"/>
</linearGradient>
<linearGradient id="paint3_linear_1_176" x1="40.6667" y1="11.3333" x2="47.6981" y2="10.6205" gradientUnits="userSpaceOnUse">
<stop stop-color="white"/>
<stop offset="1" stop-color="#C2AEFD"/>
</linearGradient>
<linearGradient id="paint4_linear_1_176" x1="41.2222" y1="11.3333" x2="45.3175" y2="8.78818" gradientUnits="userSpaceOnUse">
<stop stop-color="white"/>
<stop offset="1" stop-color="#D9CDFC"/>
</linearGradient>
</defs>
</svg>
