<svg width="46" height="30" viewBox="0 0 46 30" fill="none" xmlns="http://www.w3.org/2000/svg">
<path d="M44.3169 20.3298C44.3169 20.3298 46.8672 17.4555 45.6893 14.3284C44.5114 11.2013 42.1388 10.9182 42.1053 8.10047C42.0799 5.96195 43.2671 4.55627 44.2141 3.60032C45.1612 2.64436 46.1942 1.4082 45.1727 0.278069C44.4346 -0.538075 42.2185 0.431861 40.58 3.32652C38.9416 6.2206 38.7719 8.52864 39.648 10.7103C40.5211 12.8849 43.6924 14.6582 42.7708 16.2835C41.8491 17.9088 44.3169 20.3292 44.3169 20.3292V20.3298Z" fill="black"/>
<path d="M19.7517 14.8466C20.7149 14.8466 21.6296 15.0226 22.4555 15.3401C22.8364 14.2979 23.4181 13.1287 23.6611 12.7233C24.0195 12.1273 24.5614 11.7359 25.0652 12.831C25.3411 13.4311 25.9078 16.169 26.1087 17.1663C26.1346 17.2957 26.302 17.3277 26.3741 17.2176C26.7239 16.6805 27.5486 15.5492 28.8396 14.5758C30.6033 13.2452 36.9926 10.7432 41.5103 14.8466C46.028 18.9501 44.4802 26.3624 42.3921 28.0698C40.3041 29.7778 36.3808 29.6322 33.789 29.3415C31.1971 29.0508 21.4778 29.0869 21.4778 29.0869C21.0271 29.0287 20.5441 28.9366 20.0379 28.7962C18.2033 28.2883 17.4951 27.4284 16.7079 26.635C16.5157 26.4416 16.2786 26.3024 16.0206 26.2179C15.3961 26.0134 14.6811 25.6109 14.3654 24.9893C13.6325 23.5469 13.1465 21.9781 13.1465 20.6068C13.1465 17.4256 16.1037 14.8466 19.7511 14.8466H19.7517Z" fill="black"/>
<path d="M13.4587 20.6132L16.8488 17.1448C17.2147 16.7702 17.3474 16.2203 17.1852 15.7205C16.8222 14.5996 16.121 13.1788 15.8475 12.7233C15.4891 12.1273 14.9471 11.7359 14.4433 12.831C13.9764 13.8458 13.1892 16.5331 13.1465 20.4752C13.1448 20.6371 13.3456 20.7292 13.4582 20.6138L13.4587 20.6132Z" fill="black"/>
<path d="M17.5379 18.4524C17.5223 18.8596 16.5724 19.0256 16.083 19.007C15.5936 18.9883 15.2092 18.6429 15.2242 18.2351C15.2398 17.8279 15.649 17.5127 16.1384 17.532C16.7132 17.5541 17.5529 18.0452 17.5379 18.4524Z" fill="white"/>
<path d="M20.057 18.4524C20.0725 18.8596 21.0225 19.0256 21.5119 19.007C22.0013 18.9883 22.3856 18.6429 22.3706 18.2351C22.3551 17.8279 21.9459 17.5127 21.4565 17.532C20.8817 17.5541 20.042 18.0452 20.057 18.4524Z" fill="white"/>
<path d="M15.1353 25.4917C15.1353 25.4917 13.786 25.628 13.2672 25.6938C12.289 25.8173 10.7486 25.9006 9.9776 25.6938C9.2637 25.5022 8.78469 25.1795 9.09749 24.3377C9.38143 23.5722 11.8007 22.2982 13.4611 22.4409C15.1209 22.5836 15.1359 25.4923 15.1359 25.4923L15.1353 25.4917Z" fill="black"/>
<path d="M21.478 29.0877C21.478 29.0877 19.2907 30.0664 17.7613 29.9965C16.2325 29.9265 12.6243 29.873 10.6719 28.8972C9.71968 28.4213 9.37976 27.9179 9.4115 27.4874C9.4467 27.0086 9.99843 26.6713 10.2085 26.5816C11.3079 26.1109 12.2798 26.4057 14.4284 26.5554C14.9553 26.5921 15.7194 26.6235 16.6544 26.5816C18.2622 27.417 19.8701 28.2517 21.478 29.0871V29.0877Z" fill="black"/>
<path d="M4.99992 9.99984C7.7613 9.99984 9.99984 7.7613 9.99984 4.99992C9.99984 2.23854 7.7613 0 4.99992 0C2.23854 0 0 2.23854 0 4.99992C0 7.7613 2.23854 9.99984 4.99992 9.99984Z" fill="url(#paint0_radial_1_178)"/>
<path d="M1.60465 6.87743L1.62346 6.79567C1.652 6.67169 1.70875 6.55596 1.78931 6.45749C1.92351 6.29348 2.11555 6.18724 2.3258 6.16071L2.4603 6.14373C2.79294 6.10175 3.12756 6.20493 3.37881 6.42693L3.65576 6.67164C4.09046 7.00906 4.5869 7.25832 5.11717 7.40541L5.65846 7.55557L6.14749 7.64256C6.37596 7.6832 6.49531 7.93781 6.3804 8.13941C6.35085 8.19125 6.30802 8.23427 6.25632 8.26406L6.0007 8.41135L5.43593 8.65873L5.33217 8.69332C4.96593 8.8154 4.57982 8.86676 4.1944 8.84468L3.77038 8.80935C3.42931 8.78092 3.0954 8.6957 2.78243 8.55719L2.48376 8.42501C2.27914 8.33446 2.09631 8.20109 1.94759 8.0339L1.88923 7.96829C1.74357 7.80454 1.64391 7.60512 1.60039 7.39034L1.59805 7.37879C1.56449 7.21311 1.56673 7.04217 1.60465 6.87743Z" fill="white"/>
<path d="M1.60465 6.87743L1.62346 6.79567C1.652 6.67169 1.70875 6.55596 1.78931 6.45749C1.92351 6.29348 2.11555 6.18724 2.3258 6.16071L2.4603 6.14373C2.79294 6.10175 3.12756 6.20493 3.37881 6.42693L3.65576 6.67164C4.09046 7.00906 4.5869 7.25832 5.11717 7.40541L5.65846 7.55557L6.14749 7.64256C6.37596 7.6832 6.49531 7.93781 6.3804 8.13941C6.35085 8.19125 6.30802 8.23427 6.25632 8.26406L6.0007 8.41135L5.43593 8.65873L5.33217 8.69332C4.96593 8.8154 4.57982 8.86676 4.1944 8.84468L3.77038 8.80935C3.42931 8.78092 3.0954 8.6957 2.78243 8.55719L2.48376 8.42501C2.27914 8.33446 2.09631 8.20109 1.94759 8.0339L1.88923 7.96829C1.74357 7.80454 1.64391 7.60512 1.60039 7.39034L1.59805 7.37879C1.56449 7.21311 1.56673 7.04217 1.60465 6.87743Z" fill="url(#paint1_linear_1_178)"/>
<path d="M7.49978 6.76864C6.95863 7.58756 5.72515 8.78384 4.00692 8.75625C3.58336 8.74965 3.23239 8.71005 2.85083 8.58106C2.69784 8.52947 2.62825 8.68125 2.76324 8.77125C3.46517 9.2392 4.1587 9.45818 5.01482 9.45818C6.87764 9.45818 8.47169 8.30809 9.12623 6.67865C9.33501 6.1585 9.23782 5.72174 8.78666 5.70074C8.3355 5.67974 7.90414 6.1567 7.50038 6.76804L7.49978 6.76864Z" fill="#FE20C2"/>
<path d="M8.09253 6.85065C8.05953 6.58487 7.56098 6.60167 7.20342 6.95864C6.84165 7.3204 7.20821 7.62037 7.47759 7.56518C7.84295 7.49018 8.12553 7.11642 8.09253 6.85065Z" fill="url(#paint2_linear_1_178)"/>
<path d="M6.88542 0.702505C6.38567 0.434931 5.64474 0.373137 5.0352 0.427732C3.00259 0.608914 1.41215 2.19216 1.21776 4.22357C1.17517 4.66692 1.20277 5.09768 1.28856 5.50684C1.32635 5.68563 1.57713 5.70002 1.63712 5.52784C2.21127 3.8762 3.36496 2.7933 5.74433 2.64692C7.41097 2.54433 8.33188 1.47763 6.88482 0.702505H6.88542Z" fill="#FE20C2"/>
<path d="M6.48352 1.18684C6.67816 1.17301 6.71225 0.980841 6.49735 0.885496C5.93615 0.637501 4.958 0.648863 4.03815 0.885496C2.29329 1.33406 1.42926 2.33938 1.39616 3.2869C1.36306 4.23393 2.44297 4.73239 3.45669 4.46661C4.47041 4.20083 5.26676 3.19057 6.33136 3.17871C7.0709 3.17031 7.76054 3.40299 8.24221 3.56898C8.60432 3.69397 8.80291 3.50081 8.64088 3.15351C8.58258 3.02902 8.30791 2.71186 8.11722 2.57206C7.25912 1.9417 6.24787 1.80782 5.46684 1.82412C5.01778 1.83351 4.67839 1.83203 4.4714 1.82906C4.39334 1.82807 4.36568 1.72433 4.43336 1.68531C4.71149 1.52426 5.32159 1.26984 6.48352 1.18635V1.18684Z" fill="white"/>
<path d="M6.48352 1.18684C6.67816 1.17301 6.71225 0.980841 6.49735 0.885496C5.93615 0.637501 4.958 0.648863 4.03815 0.885496C2.29329 1.33406 1.42926 2.33938 1.39616 3.2869C1.36306 4.23393 2.44297 4.73239 3.45669 4.46661C4.47041 4.20083 5.26676 3.19057 6.33136 3.17871C7.0709 3.17031 7.76054 3.40299 8.24221 3.56898C8.60432 3.69397 8.80291 3.50081 8.64088 3.15351C8.58258 3.02902 8.30791 2.71186 8.11722 2.57206C7.25912 1.9417 6.24787 1.80782 5.46684 1.82412C5.01778 1.83351 4.67839 1.83203 4.4714 1.82906C4.39334 1.82807 4.36568 1.72433 4.43336 1.68531C4.71149 1.52426 5.32159 1.26984 6.48352 1.18635V1.18684Z" fill="url(#paint3_linear_1_178)" style="mix-blend-mode:multiply"/>
<path d="M6.48352 1.18684C6.67816 1.17301 6.71225 0.980841 6.49735 0.885496C5.93615 0.637501 4.958 0.648863 4.03815 0.885496C2.29329 1.33406 1.42926 2.33938 1.39616 3.2869C1.36306 4.23393 2.44297 4.73239 3.45669 4.46661C4.47041 4.20083 5.26676 3.19057 6.33136 3.17871C7.0709 3.17031 7.76054 3.40299 8.24221 3.56898C8.60432 3.69397 8.80291 3.50081 8.64088 3.15351C8.58258 3.02902 8.30791 2.71186 8.11722 2.57206C7.25912 1.9417 6.24787 1.80782 5.46684 1.82412C5.01778 1.83351 4.67839 1.83203 4.4714 1.82906C4.39334 1.82807 4.36568 1.72433 4.43336 1.68531C4.71149 1.52426 5.32159 1.26984 6.48352 1.18635V1.18684Z" fill="url(#paint4_linear_1_178)" style="mix-blend-mode:multiply"/>
<g style="mix-blend-mode:hue">
<circle cx="5.00007" cy="4.99992" r="4.99992" fill="#FF336D"/>
</g>
<defs>
<radialGradient id="paint0_radial_1_178" cx="0" cy="0" r="1" gradientUnits="userSpaceOnUse" gradientTransform="translate(4.99992 4.99992) scale(4.99992)">
<stop offset="0.21" stop-color="#C10086"/>
<stop offset="0.39" stop-color="#C70085"/>
<stop offset="0.64" stop-color="#D90082"/>
<stop offset="0.93" stop-color="#F7007E"/>
<stop offset="1" stop-color="#FF007E"/>
</radialGradient>
<linearGradient id="paint1_linear_1_178" x1="2.22237" y1="7.1627" x2="6.66674" y2="8.27379" gradientUnits="userSpaceOnUse">
<stop stop-color="white"/>
<stop offset="1" stop-color="#FF306B"/>
</linearGradient>
<linearGradient id="paint2_linear_1_178" x1="7.59938" y1="7.56218" x2="7.55318" y2="6.68206" gradientUnits="userSpaceOnUse">
<stop stop-color="#FFB0F4"/>
<stop offset="0.3" stop-color="#FEADF2"/>
<stop offset="0.5" stop-color="#FEA4EF"/>
<stop offset="0.66" stop-color="#FE95E9"/>
<stop offset="0.81" stop-color="#FE80E1"/>
<stop offset="0.95" stop-color="#FE65D6"/>
<stop offset="1" stop-color="#FE5AD2"/>
</linearGradient>
<linearGradient id="paint3_linear_1_178" x1="1.39517" y1="2.62047" x2="8.69818" y2="2.62047" gradientUnits="userSpaceOnUse">
<stop stop-color="white"/>
<stop offset="1" stop-color="#C2AEFD"/>
</linearGradient>
<linearGradient id="paint4_linear_1_178" x1="3.90476" y1="5.32619" x2="6.31753" y2="0.788176" gradientUnits="userSpaceOnUse">
<stop stop-color="white"/>
<stop offset="1" stop-color="#D9CDFC"/>
</linearGradient>
</defs>
</svg>
