<svg width="49" height="25" viewBox="0 0 49 25" fill="none" xmlns="http://www.w3.org/2000/svg">
<path d="M10.7306 4.71511C11.0371 2.92471 10.9301 1.95219 10.0717 0.624642C9.21391 -0.702907 6.68532 0.177044 7.6507 2.39979C8.31501 3.92936 6.93558 6.16408 5.26048 7.16927C3.09999 8.46579 1.51137 9.44974 0.342206 12.4479C-0.669124 15.0409 0.755711 17.8501 2.08812 18.9326C3.41457 20.0108 4.95887 20.1181 6.08101 19.9433C8.12258 19.6263 7.39449 17.8931 6.47883 18.1158C5.33562 18.3935 3.66214 17.543 3.20755 16.3064C2.64054 14.7627 2.89783 12.8574 4.12699 11.4291C5.72047 9.57661 10.182 7.9229 10.7306 4.71456V4.71511Z" fill="black"/>
<path d="M36.7726 11.1049C36.7726 7.75558 33.6532 5.04004 29.8047 5.04004C25.9561 5.04004 22.8297 7.69786 22.8297 11.0472C22.8297 11.0505 22.8297 11.0543 22.8297 11.0576C22.8302 11.2863 22.5362 11.3729 22.4145 11.1795C20.7448 8.53425 16.986 6.4215 12.7072 7.76974C6.95432 9.58191 5.54084 14.3835 5.44463 14.762C4.58681 18.1271 5.68408 22.9298 8.70294 22.6341C15.3271 21.9856 17.273 23.1433 22.881 24.2084C27.3712 25.0611 31.7587 21.3246 32.3808 20.18C33.6219 17.8957 34.6483 16.5219 35.2256 15.5918C36.1234 14.1445 36.7732 12.5485 36.7732 11.1049H36.7726Z" fill="black"/>
<path d="M36.4437 11.113L32.8675 7.46088C32.4816 7.06665 32.3416 6.48782 32.5124 5.96126C32.8956 4.78128 33.6351 3.28493 33.9237 2.80575C34.3015 2.17791 34.8734 1.76625 35.4048 2.91901C35.8972 3.98737 36.728 6.81671 36.7728 10.9671C36.7745 11.1375 36.5626 11.2344 36.4437 11.113Z" fill="black"/>
<path d="M23.1598 11.113L26.736 7.46088C27.1219 7.06665 27.2619 6.48782 27.0911 5.96126C26.7079 4.78128 25.9684 3.28493 25.6798 2.80575C25.302 2.17791 24.7301 1.76625 24.1987 2.91901C23.7063 3.98737 22.8755 6.81671 22.8307 10.9671C22.829 11.1375 23.0409 11.2344 23.1598 11.113Z" fill="black"/>
<path d="M31.0421 9.61522C31.0583 10.0443 32.0604 10.2191 32.5772 10.199C33.0939 10.1788 33.4993 9.81506 33.4831 9.38652C33.4669 8.95744 33.035 8.62637 32.5183 8.64597C31.9118 8.66938 31.0259 9.18614 31.0421 9.61522Z" fill="white"/>
<path d="M28.5674 9.61522C28.5512 10.0443 27.549 10.2191 27.0323 10.199C26.5155 10.1788 26.1101 9.81506 26.1264 9.38652C26.1426 8.95744 26.5745 8.62637 27.0912 8.64597C27.6977 8.66938 28.5836 9.18614 28.5674 9.61522Z" fill="white"/>
<path d="M24.1065 22.2341C26.8032 24.3953 28.3918 24.5385 30.0004 24.7863C34.2803 25.4446 38.4013 24.4802 39.3672 23.2839C40.3332 22.0876 39.2856 21.0203 37.4673 21.2256C35.8657 21.4069 31.3998 21.5551 29.9901 21.0149C29.0107 20.6392 29.5393 20.1458 31.369 20.1594C34.403 20.1823 37.4824 20.9223 38.8154 20.6903C40.1483 20.4584 40.4094 19.1205 39.3273 18.3244C38.0965 17.4188 34.2652 16.43 30.128 16.43C27.4064 16.43 21.1433 19.8589 24.1065 22.2335V22.2341Z" fill="black"/>
<path d="M6.64575 20.6089C6.26792 20.7189 6.109 21.1709 6.33494 21.4954C6.94034 22.3667 8.25274 23.8837 10.2251 24.2093C13.0289 24.6722 16.3234 24.1631 17.4266 24.0242C18.5298 23.8853 19.3725 22.6814 17.4877 22.3111C15.6029 21.9409 9.99541 20.3661 8.4322 20.3661C7.67546 20.3661 7.06952 20.4853 6.64575 20.6089Z" fill="black"/>
<path d="M43.9999 17.9998C46.7613 17.9998 48.9998 15.7613 48.9998 12.9999C48.9998 10.2385 46.7613 8 43.9999 8C41.2385 8 39 10.2385 39 12.9999C39 15.7613 41.2385 17.9998 43.9999 17.9998Z" fill="url(#paint0_radial_1_33)"/>
<path d="M40.6046 14.8774L40.6235 14.7957C40.652 14.6717 40.7088 14.556 40.7893 14.4575C40.9235 14.2935 41.1155 14.1872 41.3258 14.1607L41.4603 14.1437C41.7929 14.1018 42.1276 14.2049 42.3788 14.4269L42.6558 14.6716C43.0905 15.0091 43.5869 15.2583 44.1172 15.4054L44.6585 15.5556L45.1475 15.6426C45.376 15.6832 45.4953 15.9378 45.3804 16.1394C45.3508 16.1912 45.308 16.2343 45.2563 16.2641L45.0007 16.4113L44.4359 16.6587L44.3322 16.6933C43.9659 16.8154 43.5798 16.8668 43.1944 16.8447L42.7704 16.8093C42.4293 16.7809 42.0954 16.6957 41.7824 16.5572L41.4838 16.425C41.2791 16.3345 41.0963 16.2011 40.9476 16.0339L40.8892 15.9683C40.7436 15.8045 40.6439 15.6051 40.6004 15.3903L40.5981 15.3788C40.5645 15.2131 40.5667 15.0422 40.6046 14.8774Z" fill="white"/>
<path d="M40.6046 14.8774L40.6235 14.7957C40.652 14.6717 40.7088 14.556 40.7893 14.4575C40.9235 14.2935 41.1155 14.1872 41.3258 14.1607L41.4603 14.1437C41.7929 14.1018 42.1276 14.2049 42.3788 14.4269L42.6558 14.6716C43.0905 15.0091 43.5869 15.2583 44.1172 15.4054L44.6585 15.5556L45.1475 15.6426C45.376 15.6832 45.4953 15.9378 45.3804 16.1394C45.3508 16.1912 45.308 16.2343 45.2563 16.2641L45.0007 16.4113L44.4359 16.6587L44.3322 16.6933C43.9659 16.8154 43.5798 16.8668 43.1944 16.8447L42.7704 16.8093C42.4293 16.7809 42.0954 16.6957 41.7824 16.5572L41.4838 16.425C41.2791 16.3345 41.0963 16.2011 40.9476 16.0339L40.8892 15.9683C40.7436 15.8045 40.6439 15.6051 40.6004 15.3903L40.5981 15.3788C40.5645 15.2131 40.5667 15.0422 40.6046 14.8774Z" fill="url(#paint1_linear_1_33)"/>
<path d="M46.4998 14.7686C45.9586 15.5876 44.7252 16.7838 43.0069 16.7562C42.5834 16.7496 42.2324 16.7101 41.8508 16.5811C41.6978 16.5295 41.6283 16.6813 41.7632 16.7712C42.4652 17.2392 43.1587 17.4582 44.0148 17.4582C45.8776 17.4582 47.4717 16.3081 48.1262 14.6786C48.335 14.1585 48.2378 13.7217 47.7867 13.7007C47.3355 13.6797 46.9041 14.1567 46.5004 14.768L46.4998 14.7686Z" fill="#FE20C2"/>
<path d="M47.0925 14.8506C47.0595 14.5849 46.561 14.6017 46.2034 14.9586C45.8416 15.3204 46.2082 15.6204 46.4776 15.5652C46.843 15.4902 47.1255 15.1164 47.0925 14.8506Z" fill="url(#paint2_linear_1_33)"/>
<path d="M45.8854 8.70251C45.3857 8.43493 44.6447 8.37314 44.0352 8.42773C42.0026 8.60891 40.4121 10.1922 40.2178 12.2236C40.1752 12.6669 40.2028 13.0977 40.2886 13.5068C40.3264 13.6856 40.5771 13.7 40.6371 13.5278C41.2113 11.8762 42.365 10.7933 44.7443 10.6469C46.411 10.5443 47.3319 9.47763 45.8848 8.70251H45.8854Z" fill="#FE20C2"/>
<path d="M45.4835 9.18684C45.6782 9.17301 45.7122 8.98084 45.4973 8.8855C44.9361 8.6375 43.958 8.64886 43.0381 8.8855C41.2933 9.33406 40.4293 10.3394 40.3962 11.2869C40.3631 12.2339 41.443 12.7324 42.4567 12.4666C43.4704 12.2008 44.2668 11.1906 45.3314 11.1787C46.0709 11.1703 46.7605 11.403 47.2422 11.569C47.6043 11.694 47.8029 11.5008 47.6409 11.1535C47.5826 11.029 47.3079 10.7119 47.1172 10.5721C46.2591 9.9417 45.2479 9.80782 44.4668 9.82412C44.0178 9.83351 43.6784 9.83203 43.4714 9.82906C43.3933 9.82807 43.3657 9.72433 43.4334 9.68531C43.7115 9.52426 44.3216 9.26984 45.4835 9.18635V9.18684Z" fill="white"/>
<path d="M45.4835 9.18684C45.6782 9.17301 45.7122 8.98084 45.4973 8.8855C44.9361 8.6375 43.958 8.64886 43.0381 8.8855C41.2933 9.33406 40.4293 10.3394 40.3962 11.2869C40.3631 12.2339 41.443 12.7324 42.4567 12.4666C43.4704 12.2008 44.2668 11.1906 45.3314 11.1787C46.0709 11.1703 46.7605 11.403 47.2422 11.569C47.6043 11.694 47.8029 11.5008 47.6409 11.1535C47.5826 11.029 47.3079 10.7119 47.1172 10.5721C46.2591 9.9417 45.2479 9.80782 44.4668 9.82412C44.0178 9.83351 43.6784 9.83203 43.4714 9.82906C43.3933 9.82807 43.3657 9.72433 43.4334 9.68531C43.7115 9.52426 44.3216 9.26984 45.4835 9.18635V9.18684Z" fill="url(#paint3_linear_1_33)" style="mix-blend-mode:multiply"/>
<path d="M45.4835 9.18684C45.6782 9.17301 45.7122 8.98084 45.4973 8.8855C44.9361 8.6375 43.958 8.64886 43.0381 8.8855C41.2933 9.33406 40.4293 10.3394 40.3962 11.2869C40.3631 12.2339 41.443 12.7324 42.4567 12.4666C43.4704 12.2008 44.2668 11.1906 45.3314 11.1787C46.0709 11.1703 46.7605 11.403 47.2422 11.569C47.6043 11.694 47.8029 11.5008 47.6409 11.1535C47.5826 11.029 47.3079 10.7119 47.1172 10.5721C46.2591 9.9417 45.2479 9.80782 44.4668 9.82412C44.0178 9.83351 43.6784 9.83203 43.4714 9.82906C43.3933 9.82807 43.3657 9.72433 43.4334 9.68531C43.7115 9.52426 44.3216 9.26984 45.4835 9.18635V9.18684Z" fill="url(#paint4_linear_1_33)" style="mix-blend-mode:multiply"/>
<g style="mix-blend-mode:hue">
<circle cx="44.0001" cy="12.9999" r="4.99992" fill="#FF336D"/>
</g>
<defs>
<radialGradient id="paint0_radial_1_33" cx="0" cy="0" r="1" gradientUnits="userSpaceOnUse" gradientTransform="translate(43.9999 12.9999) scale(4.99992)">
<stop offset="0.21" stop-color="#C10086"/>
<stop offset="0.39" stop-color="#C70085"/>
<stop offset="0.64" stop-color="#D90082"/>
<stop offset="0.93" stop-color="#F7007E"/>
<stop offset="1" stop-color="#FF007E"/>
</radialGradient>
<linearGradient id="paint1_linear_1_33" x1="41.2224" y1="15.1627" x2="45.6667" y2="16.2738" gradientUnits="userSpaceOnUse">
<stop stop-color="white"/>
<stop offset="1" stop-color="#FF306B"/>
</linearGradient>
<linearGradient id="paint2_linear_1_33" x1="46.5994" y1="15.5622" x2="46.5532" y2="14.6821" gradientUnits="userSpaceOnUse">
<stop stop-color="#FFB0F4"/>
<stop offset="0.3" stop-color="#FEADF2"/>
<stop offset="0.5" stop-color="#FEA4EF"/>
<stop offset="0.66" stop-color="#FE95E9"/>
<stop offset="0.81" stop-color="#FE80E1"/>
<stop offset="0.95" stop-color="#FE65D6"/>
<stop offset="1" stop-color="#FE5AD2"/>
</linearGradient>
<linearGradient id="paint3_linear_1_33" x1="40.3952" y1="10.6205" x2="47.6982" y2="10.6205" gradientUnits="userSpaceOnUse">
<stop stop-color="white"/>
<stop offset="1" stop-color="#C2AEFD"/>
</linearGradient>
<linearGradient id="paint4_linear_1_33" x1="42.9048" y1="13.3262" x2="45.3175" y2="8.78818" gradientUnits="userSpaceOnUse">
<stop stop-color="white"/>
<stop offset="1" stop-color="#D9CDFC"/>
</linearGradient>
</defs>
</svg>
